<?xml version="1.0" encoding="UTF-8"?>
<svg id="Capa_1" data-name="Capa 1" xmlns="http://www.w3.org/2000/svg" viewBox="0 0 802.51 572.01">
  <path d="M617.88,417.69c1.08-5.62,2.01-10.69,3.02-15.74,1.25-6.24,1.14-12.17-2.66-17.73-2.64-3.87-1.52-6.07,3.08-7.01,7.03-1.44,12.77.31,18.21,5.41,9.8,9.2,12.66,20.31,11.16,33.1-.06.49-.09,1-.05,1.49.03.31.22.61,1.45,1.4,1.44-3.74,2.94-7.46,4.29-11.23,1.44-4,2.58-8.13,4.15-12.07,3.28-8.22,4.52-16.76,3.61-25.47-1.09-10.54-3.58-20.82-10.54-29.2-2.87-3.45-6.84-5.97-10.21-9.03-1.62-1.47-4.08-3.12-4.2-4.82-.12-1.67,1.88-4.1,3.59-5.19,15.07-9.59,34.27-3.58,40.69,13.02,5.29,13.67,10.19,27.57,8.49,42.95,1.03-3.81,2.1-7.61,3.08-11.43,5.26-20.56,3.58-40.66-4.67-60.11-1.64-3.86-4.64-7.26-7.46-10.48-2.76-3.15-5.55-5.05-10.69-2.78-7.53,3.32-15.64-5.38-14.56-14.69.9-7.79,6.24-11.33,12.86-13.68,1.07-.38,2.24-.49,3.75-.8-2.58-6.19-5.39-11.24-12.68-12.73-7.18-1.47-11.27-6.42-11.69-12.84,5.71-.48,11.44-.96,17.35-1.46.11-.8.43-1.52.23-2.02-3.73-9.23-6.79-18.82-15.49-25.08-2.92-2.1-5.41-4.93-7.69-7.75-2.73-3.39-2.02-6.46,1.71-8.74,5.51-3.37,11.53-2.59,17.48-1.84,1.79.23,3.53.89,5.84,1.5-.78-4.1-1.48-7.91-2.25-11.71-1.93-9.55,1-18.13,5.36-26.37.99-1.87,2.42-3.68,4.07-4.99,2.95-2.34,6.04-5.36,10.28-3.13,4.23,2.22,6.94,5.66,6.74,10.79-.03.65.08,1.3.15,2.42.78-.52,1.42-.73,1.7-1.17,9.08-14.36,21.94-23.4,38.35-27.55,6.99-1.77,12.71-5.69,17.77-10.69,1.39-1.37,2.94-2.59,5.09-4.48,1.04,2.3,2.21,3.94,2.49,5.71,1.36,8.69.44,16.38-6.26,23.46-8.63,9.13-15.99,19.45-23.43,28.68,5.61-1.63,11.48-4.11,17.58-4.91,7.24-.95,13.35,2.37,17.56,8.46,3.82,5.51,4.2,11.41,1.26,17.53-2.33,4.85-6.24,7.15-11.28,7.48-.18-1.39.12-3.28-.64-3.93-.9-.77-3.06-1.07-4.07-.5-3.01,1.7-6.61,3.33-8.42,6.03-8.18,12.26-17.03,24.4-16.17,40.35.36.08.83.3.93.19,7.68-8.49,17.67-7.57,27.45-6.32,8.2,1.05,13.28,8.58,11.84,16.76-.26,1.49-1.73,3.32-3.1,3.88-1.1.45-3.52-.31-4.27-1.33-3-4.09-5.88-2.96-8.74-.2-1.41,1.36-2.71,2.98-3.56,4.72-3.73,7.57-5.36,15.61-5.17,24.58,1.53-.33,2.59-.47,3.61-.79,4.73-1.5,9.39-2.56,13.67,1.21.47.42,1.18.6,1.82.78,6.18,1.7,6.53,2.04,2.67,7.09-1.99,2.6-5.02,4.89-8.07,6.1-8.63,3.43-13.48,9.85-16.23,18.31-.7,2.17-1.36,4.35-1.82,5.82,2.95-2.49,6.6-5.15,9.75-8.3,11.16-11.16,28.93-14.33,42.92-7.44,12.07,5.95,17.12,20.33,10.95,32.25-1.36,2.63-3.86,5.11-6.44,6.59-4.54,2.6-7.7.45-7.84-4.71-.25-9.11-4.45-12.47-13.11-9.15-10.28,3.94-18.63,10.64-23.97,20.94,7.94,4.06,17.8,6.08,17.12,18.68-3.63-.23-7,.01-10.13-.73-7.35-1.76-13.61.1-18.86,5.16-7.27,7.01-14.27,14.3-21.35,21.45,8.83-1.59,17.56-3.15,26.27-4.72-.68-3.77,2.44-4.16,5.04-3.88,10.14,1.07,20.2,4.06,27.11,11.34,4.57,4.81,6.51,12.46,8.66,19.15,3.26,10.15-1.4,19.07-6.52,27.26-4.61,7.38-15.76,10.57-24.03,8.55-4.14-1.01-4.4-3.77-4.65-7.1-.24-3.14.88-4.95,3.82-6.12,1.27-.5,3.08-2.04,3.03-3.01-.14-2.29-.6-5.26-2.13-6.59-2.13-1.87-5.24-2.98-8.11-3.57-12.66-2.59-24.95-2.48-36.89,3.85-8.61,4.56-17.84,7.93-26.79,11.83v1.22c1.26.37,2.55.66,3.77,1.14,11.26,4.4,21.68,9.5,24.4,23.17.96,4.82-.14,8.04-4.16,10.97-1.34-1.23-2.62-2.41-3.9-3.59-.26.2-.53.39-.79.59,1.14,1.39,2.14,2.92,3.43,4.14,9.98,9.48,13.68,21.36,13.52,34.78-.1,8.5-4.31,15.05-11.26,18.85-6.45,3.52-13.74,5.9-20.95,7.51-7.14,1.6-16.43-4.78-17.17-11.1-.3-2.53.6-5.64,2.05-7.71.54-.76,4.23.72,6.5,1.13,2.83.51,5.74,1.62,8.48,1.3,3.73-.43,4.48-3.04,4.23-6.97-.97-15.24-11.02-22.28-23.54-27.32-1.39-.56-3.05-.48-4.89-.75,1.12,3.46,2.76,6.26,2.72,9.02-.04,2.63-1.16,6.64-3,7.52-2.52,1.2-6.27.41-9.32-.29-1.77-.4-3.24-2.24-4.79-3.49-8.6-6.95-18.44-10.6-29.46-10.83-8.26-.17-16.53-.03-25.13.99,6.39,3.46,12.79,6.93,19.44,10.53-1.27.6-2.96,1.39-4.54,2.13,2.49,5.42,5.64,10.71,7.35,16.43,1.64,5.47,2.26,11.37,2.45,17.1.18,5.43-4.31,7.88-9.38,5.74-6.21-2.62-12.4-5.29-19.3-8.24-.65.9-1.5,2.5-2.75,3.69-2.96,2.82-5.89,5.76-9.25,8.04-2.75,1.86-5.34.23-7.5-1.97-2.34-2.38-.67-4.31.63-6.19,4.03-5.79,2.48-12.29-3.89-15.55-13.2-6.77-27.12-8.69-41.73-6.29-7.09,1.16-14.21,2.02-20.21,6.52-4.99,3.75-8.98,7.95-7.1,15.44,1.31-8.09,6.76-9.27,13.44-9.5,6.43-.22,10.31,2.3,12.83,8.07,4.91,11.23-1.36,24.27-13.07,27.97-14.12,4.46-31.79-4.45-35.39-19.43-.82-3.4-1.86-6.74-2.84-10.1-2.75-9.46.26-17.34,6.66-24.29,8.44-9.17,19.36-14.68,30.41-19.71,8.14-3.7,16.84-6.15,25.23-9.34,6.68-2.54,13.37-5.12,19.84-8.14,7.88-3.68,12.66-10.69,17.08-17.75.92-1.46.43-4.52-.5-6.27-1.59-3-3.97-5.74-1.46-9.1,2.61-3.49,6.11-5.61,10.77-5.02,8.69,1.1,13.46,6.18,13.84,14.89.09,1.98.01,3.97.01,6.9,6.71-7.39,11.81-14.89,14.98-23.64,2.19-6.05,2.99-12.19,1.82-18.65-.41-2.24.48-4.72.77-7.09,2.29.72,4.59,1.39,6.86,2.19.55.19.94.81,1.58,1.39ZM763.36,320.99c9.52-6.36,19.12-5.88,29.05-.24-.38-1.77-.68-3.59-1.76-4.48-4.65-3.81-9.95-5.9-16.14-4.93-21.34,3.36-35.03,16.99-45.9,34.31-1.51,2.41-2.37,5.23-3.54,7.86,4.53-4.57,8.32-9.52,12.11-14.47,6.81-8.91,14.74-16.2,26.33-18.19.39.61,1.2,1.67,1.11,1.75-1.8,1.63-3.48,3.97-5.61,4.52-6.3,1.64-10.03,6.2-14.02,10.67-12.8,14.33-19.98,32.08-29.5,48.4-.29.49-.35,1.12-.52,1.68,1.7-.91,2.55-2.24,3.44-3.54,9.39-13.69,18.11-27.9,28.38-40.89,8.59-10.86,21.04-16.09,35-16.51,5.66-.17,9.11,3.46,9.94,9.05.17,1.15.14,2.34.2,3.51,3.21-6.61-2.18-10.83-5.13-17.14,2.83,1.67,4.43,2.61,6.02,3.55.24-.44.49-.89.73-1.33-3.01-1.6-5.86-3.7-9.05-4.7-7.09-2.22-14.16-.58-21.15,1.12ZM606.4,466.98c9.79-5.71,14.01-15.73,18.68-25.12,3.3-6.63,4.93-14.07,7.57-21.05,1.39-3.66,3.36-7.1,5.03-10.58.1,1.39.59,3.22.3,4.91-2.47,14.36-7.12,27.82-18.04,39.34,6.29.14,9.02-3.33,11.41-6.82,7.27-10.59,11.84-22.4,13.76-35.03,1.94-12.74-.41-24.01-13.67-30.09-2.82-1.29-5.57-2.71-8.36-4.07-.41.41-.81.82-1.22,1.23,4.67,8.2,4.37,16.84,3.27,25.67-1.07,8.64-.51,17.5-3.15,26.98-1.81-4.06-3.1-6.96-4.4-9.87-.25.11-.5.21-.75.32.26,5.59.51,11.17.77,16.76-.44.03-.87.05-1.31.08-.37-5-.73-9.99-1.1-14.99-1.37,23.6-12.66,41.11-30.29,55.65,5.18-3.08,10.37-6.15,15.55-9.23,1.98-1.37,3.96-2.73,5.93-4.1ZM480.62,552.89c2.66,5.33,6.38,9.38,12.73,10.95-3.54-3.34-6.7-6.39-9.96-9.33-.78-.7-1.91-1.02-2.88-1.52-.49-2.39-.98-4.79-1.48-7.27.81,1.04,1.55,2,2.29,2.95.3-1.94.04-3.56-.41-5.12-2.44-8.57-.47-16.06,6.39-21.6,5.14-4.15,10.93-7.53,16.59-10.99,12.63-7.74,25.8-11.45,40.89-7.61,12.15,3.09,22.92,8.69,32.82,15.81,4.84,3.48,8.04,9.22,12.01,13.91,1.74,2.06,3.55,4.08,5.85,6.71.58-2.04.84-2.93,1.02-3.55,4.81,2.72,9.3,5.26,14.67,8.29.24-2.76.84-5.17.58-7.48-1.7-14.85-9.73-25.8-22.31-33.09-24.79-14.37-50.55-15.29-76.6-3.59-6.92,3.11-13.45,7.18-19.84,11.3-4.29,2.76-8.36,6.05-11.95,9.67-6.48,6.54-6.79,15.01-5.42,23.37.48,2.92,3.28,5.45,5.02,8.17ZM700.11,516.15c-3.88-11.51-11.64-18.77-18.59-26.46-9.01-9.95-21.93-8.68-33.71-10.66,8.59-2.65,17.04-.56,24.4,2.97,15.2,7.29,26.55,18.76,31.61,35.47.4.06.81.12,1.21.17.29-3.44.58-6.88.97-11.47.81,1.8,1.08,2.39,1.35,2.98.28.63.57,1.25.85,1.88.8-1.67.92-3.15.53-4.49-3.41-11.81-9.88-21.79-20.47-27.96-10.55-6.15-21.9-10.91-32.76-16.21,3.21,0,7.15-.53,10.9.1,10.58,1.76,20.31,5.87,29.47,11.48,1.74,1.07,4.23.92,6.38,1.34.37-.42.74-.84,1.1-1.26-1.15-2.82-1.8-6.03-3.57-8.39-4.46-5.94-9.97-10.82-17.44-12.68-8.89-2.21-17.99-3.05-26.45,1.03-9.6,4.63-21.6,4.69-28.5,14.64-.37.53-1.56.44-2.34.72-14.67,5.35-29.35,10.69-44,16.08-1.09.4-2.04,1.18-4.24,2.47,2.83.33,4.28.74,5.7.62,7.45-.63,14.9-1.37,22.34-2.13,5.86-.6,11.71-1.29,17.56-1.94.12.45.25.9.37,1.35-.48.66-.96,1.32-1.22,1.68,8.19,3.07,16.34,6.12,25.61,9.59-2.58-2.03-4.22-3.32-5.86-4.61.27-.36.54-.73.81-1.09,3.72,2.54,7.45,5.07,11.25,7.66v-3.27c2.09,3.42,3.62,5.93,5.64,9.24.21-7.03-1.64-9.27-6.84-11.55-3.22-1.41-5.97-3.89-8.94-5.89,4.38-.78,8.05-1.08,11.65-.73,19.05,1.81,37.61,18.21,40.36,35.67.42,2.68.06,5.49.06,9.46,4.39-6.33,1.81-12.25,2.02-17.97.68.52,1.28.98,2.79,2.15ZM663.54,206.19c.35-.34.7-.68,1.04-1.02,5.27,2.28,9.88,5.46,13.22,10.41,6.02,8.94,11.64,18.19,18.16,26.74,8.56,11.24,12.12,24.31,15.43,37.57.47,1.89.36,3.94.52,5.91l-1.34.23c-2.29-4.74-4.44-9.57-6.92-14.21-2.49-4.67-4.97-9.41-8.1-13.65-3-4.08-6.82-7.56-10.28-11.3-.39.36-.78.72-1.17,1.09,2.14,2.28,4.29,4.57,6.43,6.85-.26.37-.52.75-.78,1.12-8.97-7.76-19.04-12.69-31.07-12.66,2.14,1.52,4.52,2.58,6.77,3.85,2.58,1.45,6.09,2.5,7.4,4.76,5.69,9.87,16.47,13.76,24.17,21.25,4.5,4.38,8.57,8.59,11.31,14.22,6.51,13.38,9.47,27.65,11.07,42.29.56,5.09,1.21,10.18,1.81,15.27,1.08-3.34,1.16-6.62,1.05-9.9-.1-2.97-.5-5.94-.62-8.91-.34-7.98.09-16.06-1.02-23.93-3.68-26.11-11.24-50.82-25.8-73.31-7.89-12.19-15.52-24.02-29.04-30.66-4.59-2.26-9.06-4.56-15.48-3.33,1.56,3.01,2.3,5.69,3.99,7.48,8.26,8.79,13.49,19.31,18.28,30.18,1.42,3.22,2.64,6.05-2.2,8.37,1.62.62,2.32.98,3.07,1.16,3.68.86,7.9.8,10.94,2.66,6.42,3.94,13.19,7.87,16.2,15.55.84,2.14,2.06,4.13,3.11,6.18-1.65-6.6-3.55-13.21-7.01-18.88-6.7-10.98-12.91-22.41-23.86-30.26-3.8-2.72-6.23-7.36-9.28-11.12ZM711.13,238.26c-.35-2.19-.58-4.41-1.08-6.57-3.02-12.92-1.24-25.91,2.67-37.92,3.53-10.87,10.01-20.99,16.4-30.64,4.52-6.83,11.23-12.18,16.64-18.47,4.82-5.6,9.49-11.47,8.39-20.54-2.12,1.52-3.66,2.7-5.27,3.76-2.63,1.74-5.17,3.67-7.98,5.05-8.75,4.3-17.86,7.93-26.36,12.67-8.67,4.84-14.63,12.36-17.92,21.94-4.72,13.75-7.01,27.62-4.17,42.17,1.28,6.58,8.56,22.76,13.2,27.47-1.33-4.76-2.8-9.83-4.12-14.94-.21-.82.3-2.61.33-2.61,3.35.35,1.82-2.04,1.74-3.29-.42-5.94-1.94-11.96-1.32-17.77,1.45-13.57,7.87-25.29,15.81-36.19.57-.78,1.48-1.31,3.23-2.82-1.92,6.52-7.51,10.2-6.15,16.4-5.76,9.63-8.98,20.02-9.24,31.26-.24,10.62.98,21.04,5.21,31.04ZM639.82,450c.35.37.69.75,1.04,1.12,7.28-4.28,14.99-7.98,21.72-12.99,7.93-5.92,15.59-12.44,22.32-19.68,8.39-9.03,13.64-20.36,20.11-30.8,6.56-10.58,8.23-21.99,9.77-33.62,1.47-11.07-2.09-21.73-3.5-32.59-1.52-11.69-5.09-22.09-12.86-30.67-4.37-4.83-9.55-9.41-15.25-12.42-7.38-3.9-13.4-.66-17.07,8.19,5.34-1.04,9.03-7.14,14.52-4.22-3.2,1.09-6.5,2.22-9.79,3.34.12.4.24.81.36,1.21.6-.06,1.25.01,1.8-.19,6.96-2.62,10.97-1.71,15.21,4.43,2.43,3.52,4.19,7.56,5.84,11.53,9.54,22.89,13.2,46.28,5.55,70.54-.33,1.04-.43,2.16-.64,3.24,7.17-10.69,7.83-23.09,9.55-35.21.62.58.84,1.03.89,1.51,2.32,19.51-4.31,35.95-17.15,50.32-1.87,2.09-4.01,4.28-4.95,6.81-3.25,8.77-9.31,15.15-16.1,21.22-6.66,5.96-12.74,12.57-19.26,18.69-3.85,3.61-8.07,6.83-12.12,10.23ZM644.77,325.03c4.4,4.26,8.99,8.04,12.78,12.49,11.82,13.84,14.39,30.43,12.9,47.86-.73,8.58-1.05,17.5-5.96,25.02-4.61,7.07-9.78,13.78-14.87,20.53-1.71,2.26-2.15,3.95.78,5.66,1.02-1.27,1.79-2.98,3.1-3.72,7.18-4.04,11.73-10.5,14.23-17.81,2.88-8.41,3.92-17.43,6.19-26.07,3.48-13.27,2.31-26.02-3.19-38.52-1.47-3.34-2.54-6.86-3.79-10.29,16.05,22.67,12.34,47,6.11,71.74,1.65-1.34,3.14-2.71,3.78-4.4,2.51-6.68,5.11-13.36,7.02-20.23,5.95-21.41.98-40.86-11.85-58.39-4.78-6.54-18.86-9.59-27.23-3.87ZM774.68,416.66c-.51-1.14-.81-2.45-1.56-3.4-7.86-9.92-18.14-13.78-30.73-13-14.57.9-28.11,5.5-41.29,11.03-5.39,2.26-9.8,6.85-14.65,10.38.33.49.66.98,1,1.48,1.41-.69,2.79-1.45,4.23-2.05,10.13-4.17,20.23-8.44,30.47-12.36,2.15-.82,4.8-.34,7.22-.45-10.53,4.96-21.12,8.69-31.44,13.04-12.4,5.24-23.63,13.49-27.62,19.67,1.09-.44,1.91-.6,2.53-1.05,10.44-7.53,21.27-13.45,34.43-15.86,10.58-1.93,21.05-2.96,31.63-2.85,8.22.09,14.72,5.36,20.4,10.57,4.38,4.02,1.27,9.69.21,14.63-.02.08.21.21.64.61,3.08-3.93,4.04-8.25,3.02-13.01-2.46-11.41-8.67-16.48-21.24-17.03-6.12-.27-12.25-.05-18.38-.05,6.42-1.16,12.95-1.74,19.48-2.25,8.58-.67,15.59,2.94,21.7,8.47,4.89,4.42,6.01,10.31,5.42,16.77.78-1.02,1.42-2.01,1.53-3.06,1.46-13.88-7.23-23.32-20.52-26.2-5.27-1.14-10.83-.92-16.27-1.32,0-.21,0-.42,0-.63h16.52c.03-.52.05-1.04.08-1.55-4.9-.3-9.8-.61-14.87-.92,10.93-4.35,23.67-.62,38.08,10.4ZM502.09,563.68c7.93.21,11.08-1.75,13.75-7.26,2.21-4.57.71-8.41-2.64-11.15-1.85-1.51-5.12-2.02-7.61-1.74-1.47.17-3.74,2.79-3.72,4.27.04,2.08,1.88,4.13,3.25,6.77.3-.45.12.09-.25.33-4.02,2.64-6.52,2.19-10.49-1.81-6.16-6.22-7.99-13.39-5.08-18.84,5.42-10.17,13.68-16.55,24.9-19.06,14.9-3.33,29.48-1.5,43.64,3.57,8.71,3.12,15.7,8.5,19.23,17.63,1.22,3.17,1.89,5.66-1.6,7.65-.67.38-1.07,1.24-2.22,2.64,7.77-3.71,10.54-9.3,8.76-15.98-1.53-5.73-5.07-9.49-10-12.89-18.89-13.02-38.69-17.26-60.33-7.83-4.41,1.92-8.48,4.59-12.86,6.58-10,4.54-13.75,12.73-14.54,23.11-1.01,13.33,9.29,22.02,22.03,18.05,2.83-.88,5.33-2.83,8.1-4.34-.85,6.6-7.2,7.13-12.32,10.31ZM741.97,245.72c-9.3,7.01-12.14,17.53-15.44,27.81-1.83,5.71-1.31,28.45,1.13,32.53.7-2.06,1.4-3.72,1.82-5.44,2.69-11.11,5.31-22.24,7.98-33.35,2.61-10.88,7.76-19.31,20.87-20.42-6.95-5.58-13.98-7.26-21.56-4.25-11.85,4.71-19.89,24.74-14.98,36.63.05.13.27.18.76.5,2.27-13.81,2.83-28.59,19.42-34.01ZM720.06,252.98c-.13-2.58-.31-5.17-.38-7.75-.11-3.8-.8-7.73-.09-11.38,2.35-11.98,7.59-22.72,16.05-31.6,5.94-6.24,11.86-12.85,21.67-12.61.59.01,1.2-.43,1.74-.64.02-6.16-2.75-7.93-9.95-6.55q7.88,4,8.07,6.51c-12.01-5.82-19.07,3.96-27.62,9.1-.34-.44-.68-.88-1.02-1.32,4.02-3.92,8.03-7.84,11.84-11.55-16.56,4.95-33.37,43.52-20.31,67.8ZM687.13,199.94c-.1-1.1-.21-2.19-.3-3.29-.77-10.19-3.06-20.36.85-30.5.97-2.52,1.35-5.78.63-8.31-.68-2.43-2.97-4.54-4.94-6.37-.49-.46-2.97.32-3.73,1.21-5.18,6.13-8.36,12.82-7.6,21.37.98,10.97,8.68,17.85,15.08,25.89ZM552.73,487.49c3.34-.36,6.44-.6,9.51-1.05,13.39-1.97,22.59-13.89,24.95-24.87,1.35-6.29-1.81-12.36-7.06-14.53,4.08,13.11-.02,25.69-10.24,30.43,1.99-2.85,3.85-5.38,5.56-8.01,3.11-4.76,4.81-9.94,3.37-15.6-.44-1.74-1.78-3.53-3.23-4.63-.8-.61-2.75-.07-3.98.44-.35.15-.35,2.69.09,2.91.96.47,2.31.14,3.98.14.23,1.83.74,3.77.68,5.69-.22,6.45-3.9,11.22-8.3,15.4-4.86,4.63-10.01,8.95-15.33,13.67ZM758.8,180.83c-7.25-6.7-14.61-7.68-22.27-3.9-6.66,3.29-11.45,8.54-15.34,14.58-4.93,7.64-8.18,15.98-8.53,25.31,1.78-2,2.99-4.26,4.19-6.52,3.25-6.16,5.93-12.71,9.87-18.39,6.85-9.89,20.34-15.69,32.08-11.07ZM734.98,372.47c7.22-2.61,14.44-5.22,21.69-7.84-5.46-5.47-12.74-6.06-17.3-1.44q11.09-.73,14.01,1.98c-8.16-1.95-13.51,2.1-18.4,7.3ZM735.99,309.06c3.26-9.37,11.32-11.97,19.97-13.67-1.98-3.62-3.81-5.05-6.76-2.85-2.61,1.95-4.93,4.51-7.83,5.8-4.86,2.17-4.77,6.37-5.38,10.72ZM689.89,277.13c-4.87-4.84-10.38-7.76-17.33-5.85-3.53.97-5.52,3.27-6.2,6.94,7.78-5.46,15.52-5.76,23.53-1.09ZM673.16,532.73c3.77,2.78,7.03,3.57,10.72,2.07,4.22-1.71,5.78-3.64,6.15-7.56-5,6.22-6.25,6.66-16.87,5.49ZM729.82,321.86c.38.03.76.05,1.14.08.3-4.5.6-8.99.9-13.49-.42-.03-.83-.06-1.25-.08-.27,4.5-.53,8.99-.8,13.49Z"/>
  <path d="M149.13,492.41c-.64.5-1.49,1.58-1.88,1.43-8.58-3.19-13.63,3.67-19.57,7.21-6.66,3.96-10.51,10.65-12.53,18.07-.67,2.46-.86,6.7.51,7.7,2.51,1.84,6.31,2.05,9.63,2.57.93.15,2.01-1.17,3.11-1.44,2.09-.52,5.04-1.77,6.18-.88,1.6,1.26,2.55,4.2,2.6,6.44.1,5.64-6.11,10.88-12.51,11.48-10.4.97-19.78-1.78-28.46-7.34-6.08-3.9-9.29-9.5-9.28-16.7,0-4.98.43-9.97.74-14.95.62-9.83,4.72-17.87,13.3-23.88-5.94-.67-8.04-2.33-7.08-7.47.95-5.05,2.82-10.39,5.81-14.48,5.79-7.91,14.13-12.23,25.29-12.74-10.8-4.68-20.82-8.35-30.18-13.25-12.15-6.37-24.39-5.76-36.85-2.25-3.21.9-6.37,2.94-8.86,5.22-2.79,2.55-1.34,6.37,2.37,7.36,3.98,1.07,5.85,3.78,5.55,7.73-.32,4.13-3.1,6.23-7.02,6.45-10.43.6-18.89-3.98-24.21-12.36-14.68-23.12-.44-52.01,28.13-54.62,2.74-.25,6.99-2.03,7.78,3.29.04.3.71.66,1.12.72,8.46,1.32,16.93,2.61,25.31,3.88-3.43-2.92-7.21-5.79-10.59-9.08-4.05-3.93-7.81-8.17-11.6-12.35-4.29-4.74-9.59-6.3-15.79-5.45-3.3.45-6.61.86-9.93,1.13-2.94.24-3.88-1.26-3.17-4.04,1.29-5.08,4.74-8.34,9.16-10.63,2.78-1.44,5.79-2.42,9.16-3.8-7.88-10.35-16.46-19.15-29.45-22.06-6.1-1.37-8.14.53-8.29,6.8-.08,3.45,1.46,7.97-3.7,9.07-4.68,1-7.83-1.78-10.29-5.52-8.52-12.95-1.43-32.3,13.85-36.48,14.23-3.89,27.35-1.23,38.63,8.77,3.93,3.48,7.91,6.91,11.96,10.44-.09-.55-.04-1.44-.39-2.14-2.5-5.07-5.2-10.04-7.59-15.15-2.5-5.34-7.08-7.14-12.39-8.04-3.73-.63-6.57-2.16-6.84-6.59-.38-6.18,7.74-11.35,14.95-9.39,2.35.64,4.71,1.29,8.1,2.22-.89-4.38-1.32-7.9-2.35-11.24-1.72-5.55-3.75-11.02-5.84-16.45-.51-1.32-1.62-2.52-2.71-3.49-2.73-2.43-5.33-3.3-7.81.62-.71,1.13-3.12,2.47-3.83,2.07-1.84-1.03-4.09-2.75-4.53-4.59-1.57-6.51,5.34-15.83,12.07-16.42,4.45-.39,8.99-.2,13.47.14,5.8.43,11.17,2.03,14.24,7.99.56-.21,1.12-.42,1.68-.63-.24-3.73.23-7.68-.84-11.16-3.52-11.44-9.45-21.67-17.58-30.49-1.97-2.14-4.64-3.75-7.23-5.17-1.07-.59-3.38-.6-4.09.14-3.55,3.64-6.94,1.62-9.1-.86-2.34-2.7-4.43-6.44-4.77-9.9-1.1-11.23,11.19-21.83,22.05-18.91,6.38,1.72,12.31,5.09,19.08,8-6.85-8.46-13.37-16.85-20.25-24.92-5.47-6.42-10.43-12.99-12.14-21.48-.92-4.6-.22-8.88,2.6-13.52,2.87,2.18,5.35,4.58,8.27,6.2,5.49,3.04,10.97,6.82,16.93,8.17,15.59,3.53,26.2,13.1,34.84,25.69,1.03,1.5,2.08,2.99,3.18,4.45.14.19.58.16,1.24.31,0-2.16-.15-4.25.03-6.32.39-4.52,2.44-8.06,6.98-9.37,4.58-1.32,8.18.61,10.78,4.38,7.53,10.92,9.61,22.85,6.43,35.71-.74,3-1.56,5.99-2.15,8.26,5.74-1.17,11.21-2.57,16.77-3.3,2.33-.31,5.1.32,7.21,1.41,1.81.94,4.17,3.21,4.08,4.78-.11,1.99-2.21,4.09-3.84,5.75-2.37,2.4-5.83,4-7.53,6.75-4.56,7.35-8.52,15.07-12.52,22.75-2.01,3.86-1.05,5.12,3.23,5.02,2.66-.06,5.34-.25,7.99-.07,4.13.29,5.06,1.93,2.83,5.49-1.36,2.18-3.15,4.85-5.33,5.61-7.39,2.58-13.34,6.57-16.97,14.17,2.31.9,4.89,1.88,7.45,2.92,8.1,3.31,12.01,11.37,8.69,19.07-2.22,5.16-8.68,11.1-15.55,7.44-3.38-1.8-5.57-.29-7.87,2.04-9.01,9.14-13.77,19.74-14.41,32.88-.76,15.58-.77,30.95,2.79,46.19.17.73.46,1.42,1.15,2.11-1.51-12.62,3.6-23.92,6.57-35.58,2.05-8.06,7.06-14.27,14.08-18.74,8.73-5.57,23.95-3.9,31.2,3.34,3.93,3.92,3.49,6.14-1.87,7.42-5.43,1.3-9.7,4.23-11.77,9.2-3.82,9.2-7.48,18.53-10.3,28.08-3.12,10.57,1.36,20.29,5.1,29.94,2.38,6.13,4.6,12.32,6.92,18.48.43,1.15.97,2.26,1.9,4.39,0-8.58-1.13-16.18.27-23.28,1.98-10.04,8.15-18.07,18.23-21.38,3.74-1.23,8.52-.21,12.58.77,3.1.75,2.19,3.88.91,5.84-6.33,9.76-1.87,19.74-.63,29.6.1.8,3.16,2.03,4.54,1.72,4.24-.97,5.69-.12,5.09,4.07-2.61,18.37,4.9,33.06,16.69,46.2.61.68,1.46,1.15,2.17,1.7,0-5.16-.8-10.23.17-14.92,1.83-8.79,14.22-13.26,21.79-8.41,3.5,2.24,3.79,8.38-.11,11.81-3.68,3.23-3.01,6.48-1.06,9.75,4.39,7.38,10.94,12.74,18.64,16.05,13.75,5.9,27.78,11.19,41.8,16.42,12.44,4.64,22.93,12.21,32.28,21.31,2.91,2.83,5.13,7.17,5.97,11.17,3.13,14.82-2.49,26.68-13.71,36.32-8.38,7.2-27.92,5.14-35-3.04-4.2-4.85-5.77-17.9-2.33-23.24,3.39-5.24,8.64-6.61,14.44-5.75,5.06.75,8.43,3.71,9.52,8.91.15.71.5,1.37.94,2.54,2.33-7.22-.41-13.07-7.71-17.25-9.51-5.44-19.81-8.27-30.67-6.96-8.36,1.01-16.56,3.4-24.81,5.25-5.49,1.23-8.18,5.46-10.18,10.14-1.05,2.46-1.65,4.87,1.83,6.65,2.74,1.4,2.77,3.86.1,6-3.3,2.65-6.72,3.58-10.6,1.36-4.91-2.81-8.9-6.44-10.16-11.67-6.8,3.48-13.35,6.92-19.98,10.19-3.48,1.71-6.63-1.11-7.13-6.16-.93-9.45,1.34-18.17,5.9-26.41,1.27-2.29,2.36-4.68,3.64-7.22-1.58-.78-2.7-1.32-4.96-2.43,4.96-1.81,9.25-2.8,12.93-4.87,3.72-2.09,6.84-5.25,10.41-8.08-15.73,2.03-32.44-3.2-47.85,5.1-3.61,1.95-6.78,4.73-10.18,7.08-2.18,1.51-4.26,3.32-6.67,4.31-4.06,1.67-7-.24-9.16-3.8-2.05-3.37-1.17-5.73,1.83-8.12,2.51-2,4.47-4.68,6.67-7.06,3.08-.43,6.15-.85,8.84-1.22-1.74,2.21-3.84,4.89-5.94,7.56.28.33.55.66.83,1,8.74-10.11,20.78-10.96,32.68-12.45-3.22-.43-6.45-.87-9.67-1.3.05-.45.1-.89.14-1.34,15.75,1.18,31.5,2.36,47.26,3.54l.44-1.63c-6.56-2.54-13.02-5.36-19.7-7.55-9.63-3.15-19.43-5.77-29.11-8.79-2.22-.69-4.21-2.08-6.31-3.15.2-.45.39-.9.59-1.35,9.06,3.14,18.11,6.28,27.17,9.42-.67-1.45-1.59-2.23-2.65-2.59-6.94-2.39-13.61-5.09-19.35-9.99-1.82-1.55-5.23-1.36-7.94-1.69-2.15-.26-4.54.43-6.48-.25-4.38-1.54-8.53-3.72-12.81-5.56-14.37-6.18-27.7-3.72-39.98,5.32-5.13,3.78-8.17,9-8.37,16.97,7.28-3.2,13.78-6.27,20.45-8.92,7.13-2.83,14.53-4.77,23.08-6.07-8.35,4.64-15.45,9.12-22.99,12.64-8.35,3.9-14.13,10.14-19.54,17.3-7.01,9.28-8.42,19.4-5.91,30.26.71,3.08,2.84,5.84,4.32,8.74.4-.19.79-.37,1.19-.56-3.08-6.58-6.04-13.18-3.48-20.85.92,3.42,1.84,6.84,2.76,10.25-.8-13.33,11.61-25.27,20.02-30.21-.09.31-.09.67-.26.89-.51.65-1.07,1.28-1.66,1.86-7.32,7.27-11.53,16.16-13.69,26.14-1.36,6.29.79,11.45,5.79,14.81-.25-3.63-.93-7.69-.73-11.7.53-10.41,7.49-17.26,14.73-23.26,5.41-4.48,11.79-8.41,18.39-10.67,6.55-2.24,13.92-2.08,20.71-2.94-4.16,2.44-8.44,4.96-12.72,7.47ZM71.22,406.74c16.63,3.07,31.94,9.59,46.73,17.86-4.93-4.95-9.62-10.84-15.69-13.31-13.04-5.31-26.57-9.91-40.85-10.86-12.45-.83-23.5,2.42-31.12,13.12-1.31,1.84-1.52,4.47-2.24,6.74,10.79-14.26,27.53-19.72,43.33-13.44h-18.42c0,.53.01,1.05.02,1.58h20.14c-.92-.83-1.41-1.26-1.89-1.69ZM58.44,184.79l.17.15c-2.76-.98-5.54-2.78-8.26-2.69-2.11.07-4.95,2.04-6.05,3.97-1.97,3.45-.06,5,3.96,5.19,3.07.14,6.83.92,8.97,2.87,5.86,5.35,11.18,11.33,16.43,17.3,5.55,6.3,8.49,13.83,9.22,22.19.51,5.83.93,11.68,1.39,17.51,3.11-7.28,4.14-14.89,2.46-22.52-1.64-7.45-3.68-14.89-6.38-22.02-3.96-10.44-10.28-18.96-21.91-21.94ZM37.26,321.64c-7.78-2.86-15.5-4.42-22.93,1.2,2.92-.37,5.83-.74,8.49-1.08-3.47,2.32-7.45,3.99-9.98,6.92-2.64,3.06-3.87,7.32-2.61,11.66.74-1.28.87-2.67,1.16-4.03,1.2-5.57,5.11-9.55,9.61-9.15,12.7,1.13,24.43,4.37,33.51,14.39,7.98,8.81,15.08,18.06,20.5,28.71,4.36,8.55,10.59,15.86,17.61,22.47-.78-2.37-1.99-4.44-3.15-6.55-12.5-22.74-24.14-46.15-47.3-60.59-1.81-1.13-3.36-2.67-5.04-4.02,2.72.61,5.51,1.03,8.16,1.87,8.11,2.58,13.48,8.85,18.92,14.81,5.11,5.59,9.71,11.63,14.54,17.48-1.26-3.92-3.41-7.37-5.1-11.01-6.75-14.51-18.22-24.12-32.72-29.69-6.43-2.47-13.87-2.56-20.89-3.11-1.93-.15-4.03,1.94-6.05,3,2.07,2.86-.92,3.07-2.17,4.26-.48.46-.68,1.21-.83,1.49,4.69-1.38,9.29-3.67,13.95-3.83,4.77-.16,9.6,1.79,14.41,2.81-.09.42-.18.85-.26,1.27-.61.24-1.22.48-1.83.72ZM228.68,546.29c-1.37-2.29-3.85-4.55-3.85-6.81,0-6.97,7.11-15.23,13.89-17.37,1.74-.55,3.65-.97,5.08-2,8.8-6.37,18.93-7.02,29.15-6.71,14.12.43,27.04,3.88,36.01,16.12,4.76,6.5,4.76,16.69-.22,22.9-3.43,4.28-8.07,5.83-11.74,3.19-1.85-1.33-2.7-4.04-4.01-6.13,1.88-.74,3.75-1.48,5.66-2.24-1.8-4.1-3.78-4.39-9.23-.79-.27-.55-.54-1.12-.95-1.95-4.72,7.5-4.95,10.96-1.25,14.74,5.87,5.98,17.2,7.11,24.62,3.07,11.45-6.25,13.98-16.61,13.9-28.35-.05-6.44-2.77-12.07-7.85-15.51-11.49-7.77-22.66-16.27-36.19-20.46-3.33-1.03-6.83-1.5-10.16-2.53-19.7-6.08-38.7-4-56.4,6.16-14.28,8.2-23.65,20.32-24.47,37.58-.09,1.91.61,3.86.95,5.79.47,0,.95,0,1.42-.01,2.24-6.7,3.86-13.7,6.91-20.01,3.17-6.57,8.77-11.32,15.82-14.12-2.97,2.82-5.93,5.64-8.9,8.46.24.26.47.51.71.77,2.11-1.45,4.22-2.9,6.62-4.55-1.89,5.21-4.29,9.08-9.08,11.97-4.11,2.48-7.79,6.51-8.53,11.84.34.39.68.78,1.03,1.17,2.5-1.66,5-3.32,7.95-5.28-.57,2.12-.96,3.58-1.34,5.04.4.25.8.5,1.2.75,5.48-7.17,10.95-14.35,16.84-22.06-1.35,6.37-3.34,11.81-3.45,17.28-.13,6.23,5.52,10.63,9.87,10.05ZM83.67,164l1.13-.77c7.64,9.75,13.63,20.79,14.79,33.01,1.13,11.92-.75,24.14-1.28,35.78,2.39-2.79,5.45-6.06,8.13-9.61,1.36-1.81,2.49-4.02,2.98-6.22,3.33-15.21,3.07-30.06-1.59-45.28-4.28-13.98-13.16-22.75-25.49-28.9-10.52-5.25-22.28-8.04-31.34-16.15-.49-.44-1.35-.48-1.87-.65-1.05,7.04,2.09,12.24,6.15,17.01,2.69,3.16,5.75,6,8.46,9.15,4.42,5.14,9.05,10.15,12.94,15.68,9.86,13.98,16.79,29.14,16.5,46.74-.1,5.97-.61,11.92-.94,17.89,3.7-12.84,7.29-25.67,2.2-38.98-3.65-9.54-7.19-19.13-10.77-28.69ZM81.21,336.14c.41-.04.82-.08,1.23-.11.26-.4.68-.78.74-1.2.24-1.64.53-3.31.51-4.96-.13-12.17,2.83-23.7,6.57-35.19,4.98-15.3,14.73-26.11,29.02-33.21,2.79-1.38,5.7-3.22,7.56-5.61,4.33-5.58,9.5-9.63,16.28-11.62.13-.04.13-.53.2-.82-12.64-.2-22.34,6.77-33.17,13.78,2.03-2.5,3.41-4.2,4.78-5.9-.41-.34-.82-.69-1.23-1.03-4.56,5.45-9.12,10.91-13.93,16.67.53-1.96,1-3.67,1.46-5.38-.4-.13-.8-.27-1.2-.4-3.03,7.6-6.06,15.21-9.1,22.81-.34-25.85,35.81-77.5,52.06-80.54-4.8,5.46-9.41,10.51-13.82,15.75-7.48,8.89-14.93,17.81-22.13,26.92-1.42,1.8-1.71,4.5-2.48,6.67,4.52-2.56,8.57-5.43,13.04-7.22,4.75-1.9,9.9-2.78,16.36-4.5-6.35-2.67-5.34-5.84-3.15-9.32,4.86-7.73,9.62-15.53,14.48-23.26,2.44-3.88,5.03-7.67,8.38-12.76-3.7,0-6.19-.6-8.24.1-8.73,3.01-17.25,6.9-22.91,14.44-16.18,21.55-32.46,43.01-36.94,70.85-2.62,16.26-6.37,32.33-5.28,48.95.13,2.04.59,4.07.9,6.1ZM161.98,450.87c-6.85-6.41-13.65-12.87-20.55-19.2-14.29-13.11-27.18-27.46-37.49-43.92-8.24-13.16-12.41-35.8-9.43-50.17,1.41,14.54.36,28.71,10.72,40.58-.21-1.38-.21-2.03-.4-2.61-5.82-17.56-5.12-35.46-2.79-53.45,1.31-10.08,4.19-19.58,10.89-27.49,4.75-5.6,9.43-11.83,18.28-7.09.28.15.71.25.97.15,1.57-.65,3.53-1.03,4.49-2.2.45-.55-.66-3.15-1.72-4.02-4.82-4.01-10.33-5.09-16.36-3.01-8.66,2.99-14.68,8.97-18.96,16.84-8.75,16.1-10.27,34.03-12.02,51.67-1.82,18.4,5.56,34.94,13.77,50.92,5.99,11.65,16.16,19.78,25.05,29,10.15,10.53,22.86,17.23,35.56,24.01ZM149.82,323.46c-8.6-1.55-19.88,4.8-24.29,12.74-11.85,21.35-12.02,43.3-2.93,65.46,2.42,5.9,6.49,11.12,9.8,16.65.61-.27,1.22-.54,1.84-.81-7.4-10.78-7.49-23.25-8.67-35.35-1.23-12.59.05-24.94,7.55-36.6-14.77,49.8,7.18,88.51,29.12,98.22-1.82-2.55-2.91-4.06-3.98-5.59-6.25-9-13.45-17.5-18.56-27.11-12.94-24.34-11.75-56.08,8.43-76.67,3.13-3.19,7.17-5.48,10.74-8.14-3.11-1.66-10.35.24-13.99,3.72-3.81,3.65-7.66,7.26-11.79,11.15v-3.36c-1.53,1.99-2.63,3.42-3.73,4.86,2.83-10.21,10-15.98,20.45-19.18ZM181.35,434.3c-2.57-16.96-6.46-33.9-2.88-51.29-1.39-.53-2.94-1.12-5.02-1.91-1.91,3.89-3.83,7.81-5.76,11.73.21.11.41.22.62.33,1.09-1.54,2.18-3.08,3.48-4.92,2.29,8.72-5.58,16.5-.06,24.85-.72.06-1.43.12-2.14.19-.93-5.27-1.85-10.55-2.82-16.06-2.94,7-2.45,13.82.25,20.48,3.7,9.1,7.45,18.19,11.58,27.09,4.45,9.6,10.9,17.66,20.21,23.28-3.2-4.44-6.4-8.87-9.6-13.31.33-.22.67-.44,1-.66,2.74,3.32,5.32,6.79,8.26,9.92,3.06,3.26,6.36,6.32,9.75,9.25,2.98,2.57,6.24,4.84,9.37,7.24l1.02-1.12c-19.2-13.54-31.55-31.04-31.6-55.62-.57-.01-1.13-.03-1.7-.04-1.32,3.53-2.63,7.05-3.95,10.57ZM43.08,446.56c-1.5-6.05-1.54-12.04,3.58-16.11,3.94-3.13,8.61-6.29,13.39-7.24,18.7-3.71,36.66-.25,53.71,7.96,4.48,2.16,8.54,5.17,12.86,7.67,2.35,1.36,4.86,2.44,7.29,3.65-10.08-9.59-25.7-20.6-42.92-26.7-11.81-4.19-23.72-6.13-36.21-6.04-11.22.08-16.92,7.4-21.95,15.64-1.03,1.69-.35,4.42-.46,6.67.44.04.88.08,1.32.11,1.02-1.84,1.97-3.73,3.07-5.53,3.74-6.07,8.58-10.8,16.08-11.31,4.63-.32,9.32-.02,13.96.26,3.59.22,7.16.83,10.73,1.27-4.42.47-8.76.11-13.03.54-9.02.9-18.34,1.06-24.45,9.75-2.75,3.92-3.64,6.66-1.89,11.48,2.35-9.96,6.85-15.45,13.33-16.27-11.48,9.53-14.12,16.78-8.42,24.19ZM43.2,249.19c7.58-1.88,13.65-.6,16.39,4.81,3.87,7.62,7.25,15.64,9.57,23.85,2.68,9.5,3.99,19.38,5.89,29.1,5.06-8.87,2.86-36.62-2.1-40.16-.07.63-.13,1.26-.32,3.03-4.6-8.9-4.92-18.77-13.4-24.21,8.41.49,13.28,5.09,15.4,12.59,2.16,7.64,3.91,15.39,5.96,23.58,1.96-5.2,2.76-9.98,1.07-14.96-1.01-2.98-1.99-5.96-2.9-8.97-2.5-8.29-7.88-13.81-16.18-16.14-7.34-2.06-15.57,1.15-19.39,7.48ZM116.21,200.41c8.7-9.57,16.68-19.4,13.95-33.01-1.04-5.18-4.09-10-6.6-14.79-.4-.75-3.26-1.08-4.21-.44-1.04.7-1.54,2.72-1.61,4.2-.05,1.09.96,2.24,1.59,3.54.9-1.19,1.51-2,2.39-3.16,6.14,10.6,2.93,20.13-1.52,29.65,2.32-10.38-.16-20.02-4.32-29.54-.35.39-.93.75-.92,1.09.65,14.07,6.34,27.96,1.24,42.47ZM180.72,454.97c-12.82-22.04-25.89-43.69-13.13-70.19-6.03,4.47-8.96,10.51-9.83,17.7-2.22,18.14,4.65,33.59,14.44,48.1,1.83,2.71,4.33,4.95,8.53,4.39ZM233.15,477.13c-3.85-3.65-9.95-5.2-10.8-11.59-.7-5.26-1.52-10.51-2.31-15.87-3.38,2.1-3.17,5.77-2.76,9.37.32,2.79.66,5.65,1.55,8.3,2.73,8.16,7.26,15.27,15.67,18.21,4.51,1.58,9.73,1.15,15.21,1.69-10.37-9.54-25.45-15.52-21.59-33.46,4.9-.72,4.93-.77,3.46-4.77-6.28.89-8.59,4.14-7.81,10.32.91,7.16,5.12,12.42,9.39,17.8ZM89.5,220.75c.56-.16,1.11-.33,1.67-.49-1.68-5.9-3.16-11.87-5.08-17.69-3.92-11.92-11.18-21.1-22.87-26.25-6.05-2.67-11.75-1.37-18.17,2.19,5.29.73,9.6.74,13.53,1.97,14.09,4.4,21.78,15.1,26.68,28.29,1.48,3.97,2.83,7.99,4.24,11.99ZM46.57,294.72c2.69.69,4.47,1.43,6.3,1.57,4.58.35,7.79,2.78,10.06,6.45,1.73,2.8,3.05,5.85,4.46,8.84,1.72,3.64,3.34,7.33,5,11,.54-1.14.24-2.05.24-2.95-.03-12.06-7.19-19.7-16.23-26.13-3.03-2.15-6.02-2.02-9.82,1.23ZM111.44,277.28c8.65-3.69,17.18-5.8,25.97,1.89-.82-5.26-3.22-7.28-6.9-8.18-7.65-1.85-13.58,1.39-19.07,6.29ZM51.45,365.74c7.23,3.35,14.26,6.61,20.39,9.45-6.9-7.26-14.03-12.58-20.39-9.45ZM132.56,530.41c-7.23,3.62-13.27,3.54-19.22-1.69,3.9,7.36,13.32,8.39,19.22,1.69ZM64.38,363.99c-5.78-5.51-14.18-4.33-18.18,2.33,5.25-5.36,11.47-3.89,18.18-2.33ZM67.54,299.39c-.15-6.04-5.17-6.85-9.61-8.3.32-.31.64-.63.95-.94,2.88,3.08,5.77,6.16,8.65,9.24ZM39.87,451.16c-2.27-3.28-4.53-6.55-7.1-10.26-.36,5.57,3.06,8.13,7.1,10.26Z"/>
  <path d="M162.2,87.22c32.88-3.94,54.54-19.31,59.02-52.2,16.38-4.16,31.93-8.38,47.62-12.04,29-6.76,57.86-14.56,87.19-19.4,36.43-6,73.2-4.21,109.34,3.45,38.42,8.13,76.61,17.38,114.91,26.1,2.34.53,3.68,1.32,3.88,4.16,1.49,22.03,13.98,36.15,33.49,44.38,7.06,2.97,14.97,3.9,23.1,5.92,0,15.02.03,30.65,0,46.28-.08,35,.1,70-.4,104.99-.4,28.21-3.32,56.21-10.7,83.56-4.53,16.79-11.14,32.75-19.04,48.23-11.78,23.08-24.86,45.4-42.49,64.45-16.48,17.8-32.7,36.07-53.2,49.62-2.77,1.83-5.55,3.67-8.38,5.42-11.88,7.34-23.66,14.87-35.73,21.89-6.59,3.83-13.69,6.8-20.57,10.11-14.1,6.78-28.3,13.38-42.28,20.41-4.34,2.18-7.84,1.96-12.19.03-33.7-14.93-66.39-31.68-97.86-50.95-12.52-7.67-23.63-16.74-33.7-27.16-14.91-15.43-30.65-30.31-43.75-47.2-29.84-38.48-49.3-82.04-54.48-130.73-2.92-27.42-3.09-55.19-3.53-82.81-.58-36.48-.2-72.98-.23-109.47,0-2.3,0-4.61,0-7.07ZM171.65,180.32l-1.01.05c1.36,31.94,1.78,63.96,4.37,95.79,2.14,26.29,8.85,51.88,19.51,76.17,23.61,53.78,59.56,97.26,108.1,130.61,29.87,20.52,62.79,34.93,95.39,50.07,1.68.78,4.32.75,6.05.01,26.63-11.42,52.92-23.52,77.84-38.46,29.81-17.88,56.77-39.05,78.98-65.97,25.08-30.39,44.14-64.09,56.13-101.73,10.9-34.22,13.57-69.55,14.14-105.08.58-35.99.35-71.99.41-107.98,0-4.95,1.43-11.31-1.04-14.47-2.7-3.43-9.13-4.07-14.03-5.61-22.82-7.19-37.44-22.19-43.33-45.42-.8-3.16-2.17-4.75-5.34-5.54-28.25-7.03-56.38-14.57-84.73-21.21-23.02-5.39-46.32-9.32-70.11-9.85-20.68-.46-41.49-1.32-61.72,3.28-38.3,8.69-76.36,18.46-114.54,27.68-3.24.78-4.35,2.49-5.27,5.6-6.76,22.88-21.28,38.33-44.37,45.31-3.67,1.11-7.3,2.35-11,3.32-3.44.91-4.54,2.79-4.51,6.45.18,25.66.1,51.33.1,76.99Z"/>
  <path d="M600.46,471.08c-.64.12-1.29.29-1.93.33-.27.01-.56-.27-.71-.35,5.82-6.65,11.66-13.31,17.49-19.97.24.12.49.24.73.35-3.22,5.18-6.43,10.35-9.65,15.53-1.98,1.37-3.96,2.73-5.93,4.1Z"/>
  <path d="M633.96,477.51c.95.61,1.83,1.18,3.72,2.4-13.42.72-25.89,1.39-38.36,2.06-.08-.09-.15-.18-.23-.27,14.66-3.95,29.32-7.91,43.98-11.86.33.79.65,1.59.98,2.38-3.26,1.71-6.52,3.42-10.09,5.28Z"/>
  <path d="M652.61,460.21c17.99-8.72,37-2.74,44.03,10.42-12.55-12.68-27.78-13.6-44.03-10.42Z"/>
  <path d="M673.6,479.09c12.98,2.19,24.97,12.27,25.66,21.1-6.67-9.95-15.27-16.62-25.66-21.1Z"/>
  <path d="M713.69,161.83c6.54-11.03,14.9-20.16,27.12-24.97.37.38.73.77,1.1,1.15-4.47,4.12-8.8,8.4-13.44,12.31-4.77,4.02-9.84,7.69-14.78,11.51Z"/>
  <path d="M603.03,534.69c-8.47-7.97-17.11-16.1-25.26-23.77,10.95,1.22,24.43,13.7,25.26,23.77Z"/>
  <path d="M607.66,537.13c-5.31-8.71-10.38-17.05-15.71-25.8,8.43,6.93,13.16,15.58,15.71,25.8Z"/>
  <path d="M670.68,337.4c-7.12-4.23-13.97-8.31-20.63-12.27,3.31-2.12,10.34-.13,17.67,5.39,3.83,2.88,4.01,3.32,2.96,6.87Z"/>
  <path d="M639.55,408.12c-1.39-1.95-2.91-4.07-4.18-5.87-1.41,5.76-2.84,11.58-4.26,17.41-.51-.11-1.02-.23-1.53-.34,1.2-4.7,2.4-9.41,3.59-14.06-3.76-1.66-4.89-12.89-1.79-16.94-1.59-1.9-3.21-3.84-5.1-6.1,10.14,2.76,14.96,12.7,13.28,25.9Z"/>
  <path d="M558.21,512.06c-9.84-1.17-19.68-2.34-29.52-3.51.06-.48.13-.97.19-1.45,9.81,1.32,19.61,2.64,29.42,3.96-.03.33-.06.67-.09,1Z"/>
  <path d="M736.92,255.06c-1.6,4.81-3.2,9.62-4.8,14.43-.41-.13-.82-.26-1.23-.4,1.56-4.84,3.12-9.67,4.68-14.51.45.16.9.32,1.35.48Z"/>
  <path d="M682.75,185.44c-6.59-14.53-7.93-20.29-.08-29.59,3,2.77,2.78,5.35,1.35,9.21-1.66,4.48-1.53,9.66-1.92,14.56-.15,1.91.41,3.88.65,5.83Z"/>
  <path d="M288.58,555.23c9.26,7.13,18.23,6.37,24.7-2.67,6-8.37,8.02-15.42,3.79-23.39-.62-1.16-1.26-2.52-2.28-3.23-13.04-9.04-26.24-17.77-43.01-18.53,1.03-.21,2.06-.42,3.1-.63-16.79-6.48-30.2,4.56-45.43,7.9,2.02-1.06,4.02-2.16,6.06-3.17,2.09-1.03,4.29-1.85,6.33-2.97,17.66-9.7,35.07-8.68,52.34,1.08,6.32,3.57,12.46,6.96,17.77,12.44,3.54,3.65,7.47,6.48,9.32,11.52,3.65,9.94-4.12,23.79-11.42,27.56-6.78,3.49-12.96,1.65-18.83-2.13-1.15-.74-1.65-2.49-2.45-3.77Z"/>
  <path d="M153.27,473.58h20.35c-.72,1.58-1.03,2.27-1.07,2.37,8.53,1.73,17.13,3.47,25.73,5.22-.09.41-.17.83-.26,1.24-11.4-.8-22.8-1.6-34.57-2.43.62-.74,1.24-1.49,1.83-2.21-3.72-1.29-7.48-2.6-12.02-4.19Z"/>
  <path d="M150.22,461.77c-16.84-4.4-32.76-4.9-45.57,9.62,10.86-18.14,29.04-17.96,45.57-9.62Z"/>
  <path d="M139.12,477.34c-6.94,2.76-13.88,5.51-19.43,7.72,6.13-7.45,19.68-10.64,32.35-6.74-5.49,1.25-11.24,2.55-18.38,4.17,2.8-1.68,4.46-2.68,6.13-3.68-.22-.49-.44-.99-.66-1.48Z"/>
  <path d="M101.19,498.93c.71-5.36,11.6-15.94,21.28-19.53-7.43,6.82-14.66,13.46-21.28,19.53Z"/>
  <path d="M62.57,138.08c12.68,3.99,19.7,13.88,26.17,24.37-8.73-8.14-19.8-13.74-26.17-24.37Z"/>
  <path d="M105.73,294.55c4.22-9.57,10.69-14.14,18.33-13.25-8.26,1.51-13.68,6.86-18.33,13.25Z"/>
  <path d="M58.44,184.79c4.22,3.41,8.52,6.73,12.62,10.29,1.29,1.12,2.04,2.87,3.05,4.36-4.56-2.85-8.7-6.15-13.4-8.16-4.56-1.95-9.7-2.57-14.81-3.84,3.35-4.62,8.11-3.23,12.72-2.5l-.17-.15Z"/>
  <path d="M180.6,183.21c0-24.49.08-48.99-.08-73.48-.03-3.91.87-5.77,5.04-6.79,26.04-6.38,43.83-22.29,53.14-47.45,1.3-3.51,3.19-5.31,6.86-6.19,32.35-7.81,64.71-15.6,96.97-23.82,16.82-4.28,33.89-4.64,51.05-5.25,36.69-1.31,72.22,5.78,107.58,14.24,19.43,4.65,38.74,9.81,58.15,14.58,3.43.84,5.27,2.43,6.29,5.9,5.06,17.25,15.67,30.54,30.88,39.67,6.73,4.04,14.67,6.16,22.19,8.76,2.46.85,3.47,1.66,3.46,4.38-.18,46.48.79,92.99-.66,139.43-1.25,39.89-9.92,78.56-27.87,114.66-16.93,34.04-38.79,64.4-67.4,89.71-25.78,22.8-54.59,40.85-85.82,55.15-11.5,5.27-22.88,10.78-34.48,15.81-2.32,1.01-5.8,1.26-8.03.27-34.85-15.55-69.71-31.26-100.42-54.34-33.4-25.11-60.48-55.87-81.25-92.37-24.3-42.71-34.29-88.81-35-137.37-.27-18.49-.04-37-.04-55.5-.18,0-.37,0-.55,0ZM613.6,179.1c0-20.17-.23-40.34.15-60.5.11-5.63-1.68-8.32-6.94-10.03-24.24-7.88-40.25-24.47-49.94-47.73-.74-1.77-2.91-3.55-4.79-4.13-8.74-2.69-17.57-5.15-26.45-7.34-37.52-9.28-75.03-18.88-114.01-19.13-17.95-.12-36.01-.03-53.82,1.88-15.3,1.64-30.38,5.73-45.44,9.26-18.96,4.45-37.82,9.37-56.68,14.24-3.43.89-7.18,1.48-8.73,5.72-8.57,23.42-25.45,38.48-48.18,47.64-9.08,3.66-9.04,3.74-8.9,13.31.03,1.83-.19,3.66-.19,5.49-.02,30.16.1,60.33-.08,90.49-.15,25.57,1.58,50.92,7.14,75.93,3.4,15.27,7.15,30.39,12.89,45.06,7.93,20.28,17.5,39.83,29.93,57.48,19.59,27.81,44.31,51.06,71.81,71,26.43,19.16,56.24,32.38,85.8,45.85,2.46,1.12,6.32.86,8.9-.23,12.88-5.44,25.88-10.73,38.19-17.29,13.77-7.35,26.79-16.1,40.24-24.07,23.62-14.01,43.51-32.5,61.25-53.06,25.79-29.89,43.87-64.37,54.9-102.23,7.27-24.96,12.13-50.56,12.82-76.66.54-20.31.11-40.64.11-60.96Z"/>
  <path d="M374.69,264.26c-7.79-8.17-15.15-16.08-22.72-23.79-21.59-21.98-43.5-43.64-64.8-65.89-10.92-11.41-20.96-23.69-31.13-35.8-8.02-9.55-11.82-21.38-17.54-33.09,2.18,0,3.5-.24,4.7.04,14.92,3.52,29.66,6.95,41.34,18.33,29.57,28.82,59.56,57.21,89.37,85.77,9.12,8.74,18.24,17.49,26.79,25.69,8.23-7.84,16.62-15.64,24.78-23.67,25.76-25.35,51.22-51.01,77.24-76.07,9.52-9.17,18.77-19.03,31.77-23.79,7.5-2.74,14.93-5.53,23.74-5.26-.82,7.83-4.43,14.4-7.85,20.87-2.63,4.97-6.14,9.5-9.48,14.07-17.66,24.16-38.76,45.22-59.66,66.48-17.97,18.28-35.81,36.69-54.09,55.43,2.8,2.91,5.44,5.58,8,8.31,12.98,13.86,25.87,27.79,38.92,41.57,5.5,5.81,6.67,5.88,12.78.9,4.75-3.87,9.32-7.99,13.69-12.28,1.44-1.41,2.21-3.65,2.92-5.64,1.72-4.84,5.75-8.45,9.59-8.28,3.68.16,7.72,4.2,8.63,8.61,1.23,5.97-.11,10.31-5.37,11.9-11.8,3.58-17.46,13.83-25.26,21.77-.44.45-.64,1.13-1.02,1.85,10.47,10.07,20.93,20.02,31.24,30.13,3.21,3.15,5.84,6.89,9.04,10.06,3.9,3.85,8.24,7.25,12.16,11.08,7.53,7.35,7.43,12.56-.02,19.94-4.24,4.2-8.67,7.87-15.2,7.25-4.85-.46-9.3-2.67-10.79-7-2.65-7.71-8.16-12.82-13.71-18.04-10.07-9.46-20.36-18.68-30.36-28.22-2.97-2.83-5.01-2.56-7.87.05-5.16,4.7-10.93,8.76-15.88,13.65-2.46,2.43-4.12,5.95-5.36,9.26-1.7,4.52-4.97,7.5-9.86,7.72-4.03.18-10.33-3.45-11.39-6.93-1.04-3.41-.44-6.65,2.48-9.06.88-.73,1.97-1.62,3.01-1.69,9.27-.62,13.18-7.91,18.02-14.13,3.25-4.18,6.73-8.18,9.91-12.01-17.97-18.18-35.72-36.15-53.78-54.43-18,18.4-35.86,36.66-54.08,55.28,5.66,6.59,12.02,14.21,18.69,21.57,1.14,1.26,3.53,1.44,5.36,2.03,4.44,1.42,8.56,3.32,9.54,8.47.81,4.26-1.28,7.43-4.73,9.71-6.28,4.16-14.84.01-16.08-7.41-.37-2.2-1.74-4.66-3.41-6.14-6.5-5.71-13.37-11-19.97-16.61-2.5-2.13-4.12-2.18-6.67.24-6.03,5.71-12.69,10.76-18.74,16.45-6.41,6.04-12.16,12.78-18.66,18.7-3.7,3.37-6,7-7.42,11.78-.67,2.25-3.37,4.64-5.69,5.53-9.08,3.48-22.16-2.93-25.61-12.11-2.7-7.2,1.6-15.04,9.66-18.08,1.57-.59,2.83-2.14,4.1-3.37.7-.68,1-1.77,1.7-2.45,4.45-4.35,9.09-8.51,13.42-12.97,6.13-6.32,12.06-12.84,18.07-19.28.91-.97,1.74-2.02,2.67-2.97q6.71-6.83.57-14.51c-2.18-2.72-4.26-5.55-6.63-8.1-2.6-2.8-5.49-4.97-9.69-5.47-4.72-.56-7.6-4.64-7.47-9.16.15-5.42,4.05-11.37,8-12.21,3.58-.76,8.06,2.1,10.12,6.55,2.92,6.3,6.84,11.75,12.72,15.68,2.88,1.93,5.54,4.19,9.38,7.13,18-18.04,36.03-36.1,53.85-53.96ZM293.71,382.05c-4.06,1.63-7.31.28-10.2-2.66-.92-.94-1.88-1.96-3.03-2.51-.84-.4-2.43-.49-2.94.02-.64.64-1.04,2.41-.61,3.04.89,1.27,2.28,2.34,3.7,3.03,1.49.72,3.48.53,4.83,1.39,3.83,2.46,6.39,1.63,8.13-2.43,3.83-4.09,7.65-8.19,12.09-12.93-4.76-.92-7.39-1.04-6.85,3.85.14,1.24-.95,2.69-1.67,3.93-1.06,1.81-2.29,3.53-3.45,5.28ZM335.8,208.55c.25.76.28,1.75.78,2.25,6.54,6.53,13.15,13,19.77,19.45.04.04.44-.27.92-.58-4.49-4.87-8.82-9.83-13.45-14.48-2.43-2.44-5.4-4.36-8.13-6.51-3.07-3.2-6.12-6.41-9.21-9.6-9.72-10.01-19.45-20.03-29.21-30.01-3.01-3.08-6.14-6.05-9.21-9.07l-.97,1.01c15.36,15.6,30.72,31.2,46.13,46.75.56.56,1.71.54,2.58.8ZM466.58,332.78c3.19-2.7,6.38-5.39,9.48-8.02-18.01-19.32-35.4-37.96-53.38-57.26-2.64,4.31-4.62,7.55-6.6,10.8.41.26.82.53,1.23.79,1.26-1.02,2.53-2.04,4.32-3.49-.31,2.53-.52,4.17-.79,6.33,1.59-1.02,2.57-1.65,3.86-2.48-.27,2.03-.46,3.52-.73,5.52,2.04-1.08,3.48-1.83,5.53-2.92-1.12,2.84-1.89,4.8-2.98,7.55,2.32-.97,3.54-1.48,5.35-2.24-.59,1.96-.95,3.18-1.28,4.27,2.5.66,4.84,1.27,7.2,1.89v4.19c1.48-.51,2.72-.94,4.49-1.55-.63,2.21-1.07,3.72-1.69,5.89,1.74-.7,2.82-1.14,4.44-1.8-.48,1.94-.81,3.29-1.34,5.47,1.75-1.22,2.77-1.93,3.43-2.39,2.13,2.33,4.1,4.49,6.36,6.97-.29,1.26-.71,3.08-1.26,5.46,1.7-1.16,2.8-1.91,4.74-3.23-.74,2.66-1.21,4.32-1.84,6.6,1.51-.65,2.56-1.1,4.06-1.74-.1,1.48-.17,2.48-.25,3.61,1.16-.44,2.02-.77,3.15-1.2-.59,2.09-1.02,3.6-1.69,5.97,1.86-1.36,2.95-2.16,4.77-3.49-.55,2.03-.85,3.14-1.37,5.08,1.83-1.11,2.89-1.75,4.59-2.78-.67,3.21-1.19,5.75-1.72,8.29-2.71,1.51-4.76,1.08-6.81-1.49-1.36-1.71-3.57-2.73-5.4-4.06l-1.53,1.78c2.13,1.58,4.47,2.95,6.34,4.79,3.93,3.86,4.26,3.9,7.31-1.12ZM515.95,138.71c-.39-.48-.77-.97-1.16-1.45,5.99-5.22,11.98-10.44,17.98-15.66-.3-.35-.6-.69-.89-1.04-5.38,4.36-11.03,8.42-16.07,13.14-8.38,7.84-16.27,16.2-24.55,24.17-16.8,16.17-33.98,31.94-50.51,48.37-21.73,21.6-42.95,43.7-64.44,65.54-16.12,16.38-32.33,32.67-48.39,49.11-1,1.02-1.96,3.74-1.43,4.33,2.38,2.69,5.3,4.89,8.02,7.27.29-.31.58-.61.86-.92-1.58-2.66-3.15-5.31-4.73-7.97.32-.22.64-.44.96-.66,1.26.72,2.52,1.44,4.06,2.32.29-1.1.5-1.93.76-2.9,1.28.82,2.39,1.52,4.39,2.8-1.18-2.89-1.94-4.75-3.07-7.52,2.29,1.38,3.64,2.2,5.88,3.55-1.19-2.81-1.91-4.49-2.99-7.03,2.16,1.18,3.36,1.83,5.24,2.86-.71-2.18-1.15-3.56-1.89-5.83,2.57,1.65,4.27,2.74,6.14,3.94.32-3.03.59-5.58.9-8.52,1.87,1.12,3.16,1.9,3.72,2.24.79-2.57,1.5-4.88,2.26-7.36,1.61.91,2.54,1.43,4.33,2.44-.99-2.47-1.61-4.01-2.64-6.58,2.18,1.38,3.36,2.12,5.21,3.3-1.07-2.64-1.77-4.37-2.96-7.3,2.37,1.84,3.64,2.83,4.91,3.82.2-.19.4-.38.59-.58-.55-1.42-1.1-2.84-1.86-4.79,1.61.55,2.6.89,4.05,1.38-.36-1.59-.62-2.74-1.09-4.83,2.38,1.75,3.95,2.9,5.51,4.05.21-.2.42-.4.63-.6-.9-1.87-1.81-3.75-3.13-6.5,2.53,1.06,4,1.68,4.95,2.08,1.38-1.45,2.5-2.61,3.79-3.96-.16-.59-.46-1.67-.89-3.22,1.87,1.13,3.14,1.89,5.4,3.25-.92-2.75-1.45-4.34-2.11-6.28,1.81.39,3.11.67,4.69,1.02-.17-1.58-.29-2.7-.31-2.89,1.64-1,3.04-1.5,3.94-2.47,3.73-4.04,7.31-8.23,11.21-12.67-.31-.62-.92-1.86-2.03-4.08,2.18,1.1,3.37,1.71,5.03,2.55v-4.15c1.38.14,2.43.24,3.87.39-.34-1.59-.58-2.73-.62-2.91,1.75-.52,3.66-.49,4.25-1.36,2.59-3.78,8.85-5.17,7.83-10.36,1.34-.49,2.79-.6,3.58-1.37,6.35-6.24,12.51-12.67,18.86-18.91,17.51-17.25,35.07-34.44,52.62-51.65,13.78-13.52,27.64-26.98,41.31-40.62,3.3-3.29,6.01-7.16,8.99-10.76-.34-.33-.69-.66-1.03-.99-9.31,7.61-18.62,15.22-27.93,22.83ZM397.43,242.09c-1.19-1.24-1.83-1.97-2.53-2.63-11.25-10.63-22.56-21.2-33.77-31.88-26.26-25.04-52.42-50.2-78.77-75.15-4.72-4.46-10.16-8.16-15.27-12.21-.21.27-.42.55-.64.82,5.47,4.69,10.94,9.37,16.4,14.06-.29.32-.58.64-.87.95-8.98-6.64-17.96-13.28-26.94-19.92-.08,1.42.43,2.07,1.01,2.65,16.78,16.94,33.55,33.89,50.41,50.75.56.56,2.02.21,3.06.32.4.04.8.18,1.18.27-.19,1.53-.35,2.85-.62,4.99,1.85-1.26,2.95-2.01,4.76-3.23-.39,2.2-.63,3.57-.98,5.5,1.7-.78,2.89-1.33,4.38-2.02-.5,2.19-.87,3.84-1.43,6.33,2.06-.87,3.27-1.39,4.98-2.11-.39,1.85-.67,3.18-1.15,5.49,2-1.69,3.24-2.73,5.54-4.66-1.06,2.91-1.64,4.49-2.49,6.83,1.67-1.06,2.58-1.65,4.13-2.64-.4,1.99-.66,3.3-1.04,5.2,1.57-.84,2.59-1.39,4.24-2.28-.47,2.01-.77,3.31-1.07,4.6,1.3-.27,2.24-.47,3.65-.77-.74,1.8-1.23,2.98-1.45,3.51,2.44,1.34,4.62,2.54,7.4,4.08-.21.12.69-.41,2.26-1.35-.49,2.05-.79,3.35-1.1,4.66.5-.21,1.01-.43,1.51-.64,1.45,2.17,2.89,4.35,4.34,6.52.62-.4,1.4-.9,1.5-.97,1.3,2,2.37,3.66,3.48,5.37,1.22-.84,2.22-1.53,4.25-2.94-1.32,3.64-2.24,6.17-3.6,9.91,2.4-1.77,3.72-2.73,5.47-4.02-.43,2-.72,3.31-1.2,5.53,1.71-1.52,2.67-2.38,2.84-2.53,2.48,1.62,4.63,3.01,7.14,4.64.51.77,1.47,2.21,2.53,3.82-.26.98-.63,2.4-1.32,5.06,2.44-2.25,3.81-3.51,5.89-5.43-.56,2.63-.9,4.27-1.36,6.44,1.47-.74,2.4-1.21,4.03-2.03-.63,2.53-1.08,4.33-1.57,6.3,1.29-.45,2.29-.8,3.43-1.2.32,1.78.57,3.17.92,5.12,1.47-1.26,2.53-2.17,3.43-2.93,1.27,2.53,2.43,4.85,3.56,7.11,1.2-.21,2.14-.37,3.29-.57-.75,1.92-1.3,3.34-1.86,4.77.34.26.67.52,1.01.78,2.95-2.69,5.89-5.38,9.03-8.24ZM340.19,339.11c54.88-56.26,109.27-112.02,163.66-167.79-3.58,1.77-6.54,4.17-9.23,6.84-25.16,24.96-50.33,49.91-75.39,74.97-20.07,20.06-40.02,40.24-59.97,60.42-4.74,4.8-9.24,9.84-13.9,14.72-2.43,2.54-4.98,4.95-7.82,7.74.19.22,1.12,1.3,2.65,3.09ZM356.43,364.7c-16.28-18.74-32.66-37.42-52.77-52.3,15.17,19.86,34.21,35.82,52.77,52.3ZM507.22,358.52c-.85-1.11-1.55-2.21-2.44-3.13-5.46-5.69-10.91-11.38-16.49-16.95-.87-.87-2.94-1.85-3.55-1.43-2.18,1.47-3.96,3.53-5.89,5.36.3.33.6.65.9.98,1.05-.78,2.1-1.56,3.55-2.62,0,1.5,0,2.53,0,2.27,2.25,1.63,3.72,2.7,5.42,3.94-2.16,3.53-3.43,7.65-9.89,6.2,2.83,2.69,4.78,4.54,7.2,6.84-.56-6.14-.29-6.7,4.19-9.19.08,1.29.16,2.44.25,3.82,2.21-1.24,4.05-2.27,5.3-2.98,2.07,1.54,3.59,2.67,5.07,3.77-.71,1.35-1.39,2.65-2.5,4.78,2.28-1.1,3.54-1.71,5.8-2.79-1.34,2.25-2.07,3.48-3.49,5.85,2.89-2.08,4.61-3.32,6.57-4.72ZM446.62,364.05c18.35-16.31,36.44-32.86,51.92-51.98-19.67,14.97-35.56,33.72-51.92,51.98ZM317.54,337.13c-7.35,6.54-14.3,12.72-22.29,19.82,4.23,1.18,7.15,2.01,10.08,2.83.19-.4.38-.79.57-1.19-1.15-1.74-2.29-3.49-3.83-5.82.79-.56,1.85-1.8,2.35-1.6,2.25.9,4.34,2.21,7.42,3.87-1.18-2.65-1.97-4.42-2.59-5.81,2.83-.51,5.36-.97,7.61-1.37-.61-2.55-1.2-4.99-1.79-7.44.42-.15.84-.31,1.27-.46,1.32.8,2.64,1.61,3.96,2.41.25-.24.51-.48.76-.72-1.42-1.83-2.83-3.65-3.51-4.52ZM410.33,282.64c-.44.45-.89.9-1.33,1.35,13.54,13.27,27.08,26.53,40.62,39.8.46-.46.91-.93,1.37-1.39-13.55-13.25-27.11-26.5-40.66-39.75ZM520.4,373.79c-1.28-2.98-2.22-5.35-3.31-7.65-1.84-3.85-7.24-4.46-9.94-1.22-2.27,2.72-4.6,5.39-7.07,8.28.51.36,1.35.94,1.15.8,2.91-2.51,5.13-4.78,7.71-6.49,1.32-.87,3.32-.73,5.01-1.04-.13,1.68-.1,3.39-.45,5.03-.26,1.18-1.03,2.24-1.72,3.65,3.18-.5,5.82-.92,8.63-1.36ZM539.92,390.19c-3.26-6.28-8.93-7.34-12.54-1.5-.72,1.17-.62,4.05.2,4.66,1.1.82,3.39.58,4.97.11,2.44-.73,4.7-2.05,7.37-3.27ZM289.03,367.89c3.79-.61,6.59-1.07,9.39-1.52.04-.74.08-1.48.12-2.21-2.15-.63-4.34-1.9-6.45-1.78-5.87.34-6.14,5.32-7.17,9.87,1.77,1.09,3.6,2.21,6.12,3.76-.9-3.64-1.55-6.26-2.01-8.13ZM262.19,390.23c4.56,1.51,8.21,2.76,11.91,3.87.35.11,1.47-.83,1.41-1.12-.34-1.77-.5-3.83-1.54-5.13-.98-1.21-3.27-2.52-4.47-2.15-2.37.74-4.38,2.62-7.31,4.52ZM359.97,232.12l-1.09,1.21c5.81,5.39,11.62,10.78,17.43,16.18.33-.36.66-.72,1-1.07-5.78-5.44-11.55-10.88-17.33-16.31ZM520.12,383.07c5.47-2.69,5.99-4.38,2.33-7.73-.78,2.59-1.51,5.02-2.33,7.73Z"/>
</svg>