<?xml version="1.0" encoding="UTF-8"?>
<svg id="Capa_1" data-name="Capa 1" xmlns="http://www.w3.org/2000/svg" viewBox="0 0 1589.81 469.58">
  <g>
    <path d="M507.24,342.9c.88-4.62,1.65-8.78,2.48-12.92,1.03-5.12.94-9.99-2.18-14.56-2.17-3.17-1.25-4.98,2.53-5.76,5.77-1.19,10.48.25,14.95,4.44,8.04,7.56,10.4,16.67,9.16,27.18-.05.41-.07.82-.04,1.23.02.26.18.5,1.19,1.15,1.18-3.07,2.41-6.13,3.53-9.22,1.18-3.29,2.11-6.67,3.41-9.91,2.69-6.75,3.71-13.76,2.97-20.91-.9-8.66-2.94-17.09-8.65-23.97-2.35-2.83-5.62-4.9-8.38-7.41-1.33-1.21-3.35-2.56-3.45-3.96-.1-1.37,1.54-3.36,2.95-4.26,12.37-7.87,28.13-2.94,33.4,10.69,4.34,11.22,8.36,22.63,6.97,35.26.84-3.13,1.72-6.24,2.53-9.38,4.32-16.88,2.94-33.38-3.84-49.35-1.35-3.17-3.81-5.96-6.12-8.61-2.26-2.58-4.56-4.15-8.78-2.28-6.18,2.73-12.84-4.42-11.95-12.06.74-6.4,5.12-9.3,10.56-11.23.88-.31,1.84-.4,3.08-.66-2.12-5.08-4.43-9.23-10.41-10.45-5.9-1.2-9.25-5.27-9.6-10.54,4.69-.39,9.39-.79,14.24-1.2.09-.66.36-1.25.19-1.66-3.06-7.58-5.57-15.45-12.71-20.59-2.4-1.73-4.45-4.05-6.32-6.37-2.25-2.78-1.66-5.3,1.41-7.18,4.52-2.77,9.46-2.12,14.35-1.51,1.47.18,2.89.73,4.8,1.23-.64-3.36-1.22-6.5-1.84-9.61-1.58-7.84.82-14.89,4.4-21.65.81-1.54,1.99-3.02,3.34-4.1,2.42-1.92,4.96-4.4,8.44-2.57,3.47,1.82,5.7,4.65,5.53,8.86-.02.53.06,1.07.12,1.99.64-.43,1.17-.6,1.39-.96,7.45-11.78,18.02-19.21,31.49-22.62,5.74-1.45,10.43-4.67,14.59-8.78,1.14-1.13,2.41-2.13,4.18-3.68.85,1.89,1.82,3.23,2.04,4.69,1.12,7.13.36,13.44-5.14,19.26-7.08,7.49-13.13,15.97-19.23,23.54,4.6-1.34,9.42-3.37,14.43-4.03,5.94-.78,10.96,1.95,14.42,6.94,3.13,4.53,3.45,9.37,1.04,14.39-1.92,3.98-5.13,5.87-9.26,6.14-.14-1.14.1-2.7-.52-3.22-.74-.63-2.51-.88-3.34-.41-2.47,1.39-5.43,2.73-6.91,4.95-6.72,10.06-13.98,20.03-13.27,33.12.3.07.68.25.77.16,6.3-6.97,14.51-6.21,22.53-5.19,6.73.86,10.9,7.05,9.72,13.76-.21,1.22-1.42,2.72-2.54,3.19-.91.37-2.89-.25-3.51-1.09-2.47-3.36-4.82-2.43-7.18-.16-1.15,1.11-2.22,2.44-2.93,3.87-3.06,6.21-4.4,12.81-4.24,20.18,1.25-.27,2.13-.39,2.96-.65,3.88-1.23,7.71-2.11,11.22,1,.39.34.97.5,1.49.64,5.07,1.39,5.36,1.68,2.19,5.82-1.63,2.13-4.12,4.01-6.62,5.01-7.08,2.82-11.07,8.09-13.33,15.03-.58,1.78-1.12,3.57-1.49,4.78,2.42-2.04,5.42-4.23,8.01-6.82,9.16-9.16,23.75-11.77,35.24-6.11,9.91,4.88,14.06,16.69,8.99,26.48-1.12,2.16-3.17,4.19-5.29,5.41-3.72,2.14-6.32.37-6.43-3.86-.2-7.48-3.65-10.23-10.76-7.51-8.44,3.23-15.29,8.73-19.68,17.19,6.52,3.33,14.62,5,14.06,15.34-2.98-.19-5.75.01-8.32-.6-6.03-1.44-11.18.09-15.48,4.24-5.97,5.76-11.71,11.74-17.53,17.61,7.25-1.3,14.41-2.59,21.57-3.87-.56-3.09,2-3.41,4.13-3.19,8.33.88,16.58,3.33,22.26,9.31,3.75,3.95,5.35,10.23,7.11,15.72,2.68,8.33-1.15,15.66-5.36,22.38-3.78,6.05-12.93,8.68-19.73,7.02-3.4-.83-3.61-3.09-3.82-5.83-.2-2.58.73-4.07,3.14-5.02,1.04-.41,2.53-1.68,2.48-2.47-.11-1.88-.49-4.32-1.74-5.41-1.75-1.53-4.31-2.45-6.66-2.93-10.39-2.13-20.48-2.03-30.29,3.16-7.06,3.74-14.65,6.51-22,9.71v1c1.03.31,2.1.54,3.1.93,9.25,3.61,17.8,7.8,20.03,19.02.79,3.95-.11,6.6-3.41,9.01-1.1-1.01-2.15-1.98-3.2-2.95-.22.16-.43.32-.65.48.93,1.14,1.75,2.4,2.81,3.4,8.19,7.79,11.23,17.54,11.1,28.56-.09,6.97-3.54,12.35-9.25,15.47-5.29,2.89-11.28,4.84-17.2,6.17-5.86,1.31-13.49-3.92-14.09-9.12-.24-2.08.49-4.63,1.69-6.33.44-.63,3.47.59,5.33.92,2.32.42,4.71,1.33,6.96,1.07,3.06-.35,3.67-2.49,3.47-5.72-.8-12.51-9.05-18.29-19.32-22.43-1.14-.46-2.5-.4-4.02-.62.92,2.84,2.26,5.14,2.23,7.41-.03,2.16-.95,5.45-2.46,6.18-2.07.99-5.15.33-7.65-.23-1.45-.33-2.66-1.84-3.94-2.87-7.06-5.71-15.14-8.7-24.18-8.89-6.78-.14-13.57-.03-20.63.81,5.25,2.84,10.5,5.69,15.96,8.64-1.05.49-2.43,1.14-3.73,1.75,2.05,4.45,4.63,8.79,6.04,13.49,1.34,4.49,1.86,9.33,2.01,14.04.15,4.46-3.54,6.47-7.7,4.71-5.1-2.15-10.18-4.35-15.85-6.77-.54.74-1.23,2.05-2.25,3.03-2.43,2.31-4.84,4.73-7.59,6.6-2.26,1.53-4.39.19-6.16-1.62-1.92-1.96-.55-3.54.52-5.08,3.3-4.75,2.03-10.09-3.19-12.77-10.84-5.56-22.26-7.13-34.26-5.16-5.82.95-11.67,1.66-16.59,5.35-4.1,3.08-7.37,6.53-5.83,12.68,1.07-6.64,5.55-7.61,11.03-7.8,5.28-.18,8.46,1.89,10.53,6.63,4.03,9.22-1.12,19.92-10.73,22.96-11.59,3.66-26.1-3.65-29.06-15.95-.67-2.79-1.53-5.53-2.33-8.29-2.26-7.77.21-14.24,5.46-19.94,6.93-7.53,15.89-12.05,24.96-16.18,6.68-3.04,13.83-5.05,20.71-7.67,5.48-2.09,10.97-4.2,16.29-6.68,6.47-3.02,10.39-8.78,14.02-14.57.75-1.2.35-3.71-.41-5.15-1.3-2.47-3.26-4.71-1.2-7.47,2.15-2.87,5.01-4.61,8.84-4.12,7.14.9,11.05,5.07,11.36,12.22.07,1.63.01,3.26.01,5.66,5.51-6.07,9.7-12.22,12.3-19.4,1.8-4.97,2.46-10.01,1.49-15.31-.33-1.84.39-3.87.63-5.82,1.88.59,3.77,1.14,5.63,1.79.45.16.77.66,1.3,1.14ZM626.67,263.51c7.81-5.22,15.7-4.82,23.85-.2-.31-1.45-.56-2.95-1.45-3.68-3.82-3.13-8.17-4.84-13.25-4.04-17.52,2.76-28.76,13.95-37.68,28.17-1.24,1.98-1.95,4.29-2.9,6.45,3.72-3.75,6.83-7.81,9.94-11.88,5.59-7.32,12.1-13.3,21.62-14.93.32.5.98,1.37.91,1.43-1.48,1.33-2.86,3.26-4.61,3.71-5.17,1.34-8.23,5.09-11.51,8.76-10.51,11.77-16.4,26.33-24.22,39.73-.24.41-.29.92-.42,1.38,1.39-.75,2.09-1.84,2.82-2.91,7.71-11.24,14.87-22.9,23.3-33.57,7.05-8.91,17.27-13.21,28.74-13.56,4.65-.14,7.47,2.84,8.16,7.43.14.95.11,1.92.16,2.88,2.63-5.42-1.79-8.89-4.21-14.07,2.32,1.37,3.63,2.14,4.94,2.92.2-.36.4-.73.6-1.09-2.47-1.31-4.81-3.04-7.43-3.86-5.82-1.82-11.63-.48-17.36.92ZM497.81,383.36c8.03-4.69,11.5-12.91,15.34-20.62,2.71-5.44,4.05-11.55,6.22-17.28,1.14-3.01,2.76-5.83,4.13-8.68.08,1.14.49,2.64.25,4.03-2.03,11.79-5.85,22.84-14.81,32.3,5.17.11,7.4-2.73,9.37-5.6,5.97-8.7,9.72-18.39,11.3-28.76,1.59-10.46-.34-19.71-11.22-24.7-2.31-1.06-4.58-2.22-6.86-3.34-.33.34-.67.68-1,1.01,3.83,6.73,3.59,13.82,2.68,21.07-.88,7.09-.42,14.37-2.58,22.15-1.48-3.33-2.55-5.72-3.61-8.11-.21.09-.41.17-.62.26.21,4.58.42,9.17.63,13.76-.36.02-.72.04-1.07.07-.3-4.1-.6-8.2-.9-12.3-1.12,19.37-10.39,33.75-24.87,45.69,4.26-2.53,8.51-5.05,12.77-7.58,1.62-1.12,3.25-2.24,4.87-3.37ZM394.56,453.88c2.18,4.38,5.24,7.7,10.45,8.99-2.91-2.74-5.5-5.25-8.17-7.66-.64-.58-1.57-.84-2.37-1.25-.4-1.96-.8-3.93-1.22-5.97.66.86,1.27,1.64,1.88,2.42.24-1.59.03-2.92-.34-4.21-2.01-7.03-.39-13.18,5.25-17.73,4.22-3.41,8.97-6.18,13.62-9.03,10.37-6.35,21.18-9.4,33.57-6.24,9.98,2.54,18.82,7.13,26.95,12.98,3.97,2.85,6.6,7.57,9.86,11.42,1.43,1.69,2.91,3.35,4.8,5.51.48-1.68.69-2.41.83-2.91,3.95,2.23,7.64,4.32,12.04,6.81.19-2.26.69-4.24.47-6.14-1.4-12.19-7.98-21.18-18.31-27.16-20.35-11.8-41.5-12.56-62.88-2.94-5.68,2.55-11.04,5.9-16.29,9.28-3.52,2.27-6.86,4.97-9.81,7.94-5.32,5.37-5.57,12.33-4.45,19.19.39,2.39,2.69,4.48,4.12,6.7ZM574.74,423.73c-3.19-9.45-9.55-15.41-15.26-21.72-7.39-8.17-18.01-7.12-27.67-8.75,7.06-2.18,13.99-.46,20.03,2.44,12.48,5.99,21.8,15.4,25.95,29.12.33.05.66.09.99.14.24-2.82.48-5.65.8-9.41.67,1.47.89,1.96,1.11,2.45.23.51.47,1.03.7,1.54.66-1.37.76-2.59.44-3.69-2.8-9.7-8.11-17.88-16.8-22.95-8.66-5.05-17.98-8.95-26.89-13.31,2.63,0,5.87-.43,8.95.08,8.68,1.45,16.67,4.82,24.19,9.43,1.43.88,3.47.76,5.24,1.1.3-.35.6-.69.91-1.04-.95-2.32-1.47-4.95-2.93-6.89-3.66-4.88-8.18-8.88-14.32-10.41-7.3-1.81-14.77-2.51-21.71.84-7.88,3.8-17.73,3.85-23.4,12.02-.3.43-1.28.36-1.92.59-12.05,4.39-24.09,8.78-36.12,13.2-.89.33-1.68.96-3.48,2.03,2.32.27,3.52.6,4.68.51,6.12-.52,12.23-1.12,18.34-1.75,4.81-.49,9.61-1.06,14.42-1.59.1.37.2.74.3,1.11-.39.54-.78,1.08-1,1.38,6.72,2.52,13.42,5.02,21.02,7.87-2.12-1.67-3.46-2.73-4.81-3.79.22-.3.45-.6.67-.9,3.06,2.08,6.11,4.16,9.23,6.29v-2.69c1.72,2.81,2.97,4.86,4.63,7.59.17-5.77-1.34-7.61-5.61-9.48-2.64-1.16-4.9-3.2-7.34-4.84,3.59-.64,6.6-.88,9.57-.6,15.64,1.48,30.88,14.95,33.13,29.29.35,2.2.05,4.51.05,7.77,3.61-5.2,1.48-10.06,1.66-14.75.56.43,1.05.81,2.29,1.76ZM544.72,169.27c.29-.28.57-.56.86-.84,4.33,1.87,8.11,4.48,10.85,8.54,4.94,7.34,9.56,14.93,14.91,21.96,7.03,9.22,9.95,19.95,12.67,30.84.39,1.56.3,3.23.43,4.85l-1.1.19c-1.88-3.89-3.64-7.85-5.68-11.66-2.05-3.83-4.08-7.72-6.65-11.2-2.47-3.35-5.6-6.21-8.44-9.28-.32.3-.64.6-.96.89,1.76,1.88,3.52,3.75,5.28,5.63-.21.31-.43.61-.64.92-7.36-6.37-15.63-10.42-25.5-10.4,1.76,1.25,3.71,2.12,5.56,3.16,2.12,1.19,5,2.05,6.07,3.91,4.67,8.11,13.52,11.29,19.84,17.45,3.69,3.59,7.04,7.05,9.29,11.68,5.34,10.98,7.77,22.7,9.08,34.72.46,4.18.99,8.36,1.49,12.53.89-2.74.96-5.44.86-8.13-.08-2.44-.41-4.88-.51-7.32-.28-6.55.07-13.19-.84-19.64-3.02-21.43-9.23-41.72-21.18-60.18-6.47-10-12.74-19.72-23.84-25.17-3.77-1.85-7.44-3.74-12.71-2.73,1.28,2.47,1.89,4.67,3.27,6.14,6.78,7.21,11.08,15.85,15,24.77,1.16,2.64,2.16,4.97-1.81,6.87,1.33.51,1.91.81,2.52.95,3.02.7,6.48.66,8.98,2.19,5.27,3.23,10.83,6.46,13.3,12.77.69,1.76,1.69,3.39,2.55,5.07-1.36-5.42-2.92-10.85-5.75-15.5-5.5-9.02-10.59-18.39-19.59-24.84-3.12-2.24-5.11-6.04-7.62-9.13ZM583.79,195.6c-.29-1.8-.47-3.62-.89-5.39-2.48-10.6-1.02-21.27,2.19-31.13,2.9-8.92,8.22-17.23,13.47-25.15,3.71-5.61,9.22-10,13.66-15.16,3.95-4.6,7.79-9.41,6.89-16.86-1.74,1.25-3,2.22-4.33,3.09-2.16,1.43-4.25,3.01-6.55,4.14-7.18,3.53-14.66,6.51-21.64,10.4-7.12,3.97-12.01,10.15-14.71,18.01-3.88,11.29-5.75,22.67-3.43,34.62,1.05,5.4,7.03,18.68,10.84,22.55-1.09-3.9-2.3-8.07-3.38-12.26-.18-.68.24-2.14.27-2.14,2.75.29,1.5-1.67,1.43-2.7-.34-4.87-1.59-9.82-1.08-14.59,1.19-11.14,6.46-20.76,12.98-29.71.47-.64,1.21-1.08,2.65-2.32-1.58,5.35-6.17,8.38-5.05,13.46-4.73,7.9-7.37,16.43-7.59,25.66-.2,8.72.8,17.27,4.28,25.48ZM525.25,369.42c.28.31.57.61.85.92,5.97-3.51,12.31-6.55,17.83-10.67,6.51-4.86,12.8-10.21,18.32-16.15,6.89-7.41,11.19-16.71,16.51-25.29,5.38-8.68,6.76-18.05,8.02-27.6,1.21-9.09-1.71-17.84-2.87-26.75-1.25-9.6-4.18-18.13-10.56-25.18-3.59-3.96-7.84-7.72-12.52-10.19-6.06-3.2-11-.54-14.01,6.72,4.39-.86,7.41-5.86,11.92-3.46-2.63.9-5.33,1.82-8.03,2.74.1.33.2.66.3.99.49-.05,1.03.01,1.48-.16,5.72-2.15,9.01-1.41,12.49,3.64,1.99,2.89,3.44,6.21,4.8,9.47,7.83,18.79,10.83,37.99,4.56,57.91-.27.86-.35,1.77-.52,2.66,5.89-8.78,6.43-18.95,7.84-28.91.51.47.69.85.73,1.24,1.91,16.02-3.54,29.52-14.08,41.31-1.54,1.72-3.3,3.51-4.07,5.59-2.66,7.2-7.64,12.44-13.22,17.42-5.47,4.89-10.46,10.32-15.81,15.35-3.16,2.97-6.62,5.61-9.95,8.4ZM529.31,266.83c3.62,3.5,7.38,6.6,10.49,10.26,9.7,11.37,11.81,24.98,10.59,39.29-.6,7.04-.86,14.37-4.89,20.54-3.78,5.8-8.03,11.31-12.21,16.85-1.4,1.86-1.77,3.25.64,4.65.84-1.04,1.47-2.45,2.54-3.05,5.89-3.32,9.63-8.62,11.68-14.62,2.36-6.9,3.22-14.31,5.08-21.4,2.86-10.9,1.9-21.36-2.62-31.62-1.21-2.74-2.09-5.63-3.11-8.45,13.18,18.61,10.13,38.58,5.02,58.89,1.35-1.1,2.58-2.22,3.1-3.61,2.06-5.49,4.19-10.97,5.76-16.61,4.89-17.57.8-33.54-9.73-47.94-3.92-5.37-15.48-7.87-22.35-3.18ZM635.96,342.05c-.42-.94-.66-2.01-1.28-2.79-6.45-8.15-14.89-11.31-25.23-10.67-11.96.74-23.07,4.51-33.9,9.06-4.42,1.86-8.04,5.62-12.03,8.52.27.4.55.81.82,1.21,1.16-.56,2.29-1.19,3.47-1.68,8.32-3.43,16.61-6.93,25.01-10.15,1.76-.68,3.94-.28,5.93-.37-8.65,4.07-17.34,7.13-25.81,10.71-10.18,4.3-19.4,11.07-22.67,16.15.89-.36,1.57-.5,2.08-.86,8.57-6.18,17.46-11.04,28.27-13.02,8.68-1.59,17.28-2.43,25.97-2.34,6.75.08,12.08,4.4,16.75,8.68,3.6,3.3,1.04,7.95.17,12.01-.01.06.17.17.52.5,2.53-3.23,3.32-6.77,2.48-10.68-2.02-9.37-7.12-13.53-17.44-13.98-5.02-.22-10.06-.04-15.09-.04,5.27-.95,10.63-1.42,15.99-1.84,7.05-.55,12.79,2.41,17.81,6.95,4.02,3.63,4.93,8.46,4.45,13.77.64-.84,1.16-1.65,1.25-2.52,1.2-11.39-5.94-19.15-16.84-21.51-4.33-.94-8.89-.76-13.35-1.09,0-.17,0-.35,0-.52h13.56c.02-.43.04-.85.06-1.28-4.02-.25-8.04-.5-12.21-.76,8.97-3.57,19.44-.51,31.26,8.53ZM412.18,462.75c6.51.17,9.1-1.44,11.28-5.96,1.81-3.75.58-6.9-2.17-9.15-1.52-1.24-4.21-1.66-6.25-1.43-1.2.14-3.07,2.29-3.05,3.5.03,1.71,1.54,3.39,2.67,5.56.24-.37.1.07-.2.27-3.3,2.16-5.35,1.8-8.61-1.49-5.06-5.1-6.56-10.99-4.17-15.47,4.45-8.35,11.23-13.59,20.44-15.64,12.23-2.73,24.2-1.23,35.82,2.93,7.15,2.56,12.89,6.97,15.79,14.47,1.01,2.6,1.55,4.64-1.31,6.28-.55.32-.88,1.02-1.82,2.17,6.38-3.05,8.65-7.64,7.19-13.12-1.25-4.7-4.16-7.79-8.21-10.58-15.5-10.69-31.76-14.17-49.53-6.43-3.62,1.58-6.96,3.77-10.56,5.4-8.21,3.72-11.29,10.45-11.93,18.97-.83,10.94,7.63,18.08,18.09,14.82,2.32-.72,4.38-2.32,6.65-3.56-.7,5.42-5.91,5.85-10.12,8.47ZM609.11,201.72c-7.64,5.75-9.97,14.39-12.67,22.83-1.5,4.69-1.08,23.36.93,26.71.57-1.69,1.15-3.05,1.49-4.46,2.21-9.12,4.36-18.26,6.55-27.38,2.14-8.93,6.37-15.85,17.13-16.76-5.7-4.58-11.47-5.96-17.7-3.49-9.73,3.86-16.33,20.31-12.29,30.07.04.1.22.15.62.41,1.86-11.34,2.32-23.47,15.94-27.92ZM591.12,207.68c-.11-2.12-.25-4.24-.31-6.36-.09-3.12-.66-6.35-.07-9.34,1.93-9.84,6.23-18.65,13.18-25.94,4.87-5.12,9.73-10.55,17.79-10.35.49.01.98-.35,1.43-.52.02-5.05-2.26-6.51-8.17-5.38q6.47,3.29,6.62,5.34c-9.86-4.78-15.65,3.25-22.68,7.47-.28-.36-.56-.72-.84-1.09,3.3-3.22,6.59-6.44,9.72-9.49-13.6,4.06-27.39,35.73-16.67,55.66ZM564.09,164.14c-.08-.9-.18-1.8-.24-2.7-.63-8.36-2.51-16.72.7-25.04.8-2.07,1.11-4.74.52-6.82-.56-1.99-2.44-3.73-4.06-5.23-.4-.37-2.44.26-3.06.99-4.25,5.03-6.86,10.52-6.24,17.54.8,9.01,7.12,14.65,12.38,21.25ZM453.76,400.2c2.74-.3,5.29-.49,7.81-.87,11-1.62,18.55-11.4,20.48-20.42,1.11-5.16-1.49-10.15-5.8-11.93,3.35,10.77-.02,21.09-8.41,24.98,1.63-2.34,3.16-4.42,4.57-6.57,2.55-3.91,3.95-8.16,2.77-12.81-.36-1.43-1.46-2.9-2.65-3.8-.66-.5-2.26-.06-3.27.36-.29.12-.28,2.21.07,2.39.79.38,1.9.12,3.27.12.19,1.51.61,3.1.56,4.67-.18,5.3-3.2,9.21-6.81,12.64-3.99,3.8-8.22,7.35-12.59,11.22ZM622.93,148.45c-5.95-5.5-11.99-6.3-18.28-3.2-5.47,2.7-9.4,7.01-12.6,11.97-4.04,6.27-6.71,13.12-7,20.78,1.46-1.64,2.46-3.49,3.44-5.35,2.67-5.06,4.87-10.44,8.1-15.1,5.62-8.12,16.7-12.88,26.34-9.09ZM603.38,305.77c5.93-2.14,11.86-4.29,17.81-6.44-4.48-4.49-10.46-4.97-14.2-1.18q9.11-.6,11.5,1.62c-6.7-1.6-11.09,1.72-15.11,6ZM604.2,253.72c2.68-7.7,9.29-9.82,16.39-11.22-1.63-2.97-3.13-4.14-5.55-2.34-2.14,1.6-4.05,3.7-6.43,4.76-3.99,1.78-3.92,5.23-4.42,8.8ZM566.35,227.51c-4-3.97-8.52-6.37-14.23-4.8-2.89.8-4.53,2.69-5.09,5.7,6.39-4.48,12.74-4.73,19.31-.9ZM552.62,437.34c3.09,2.28,5.77,2.93,8.8,1.7,3.47-1.4,4.74-2.99,5.05-6.21-4.11,5.11-5.13,5.46-13.85,4.51ZM599.14,264.23c.31.02.63.04.94.07.25-3.69.49-7.38.74-11.07-.34-.02-.68-.05-1.03-.07-.22,3.69-.44,7.38-.65,11.07Z"/>
    <path d="M122.43,404.24c-.52.41-1.22,1.29-1.55,1.17-7.04-2.62-11.19,3.02-16.06,5.92-5.47,3.25-8.63,8.74-10.29,14.83-.55,2.02-.71,5.5.42,6.32,2.06,1.51,5.18,1.68,7.9,2.11.76.12,1.65-.96,2.55-1.18,1.72-.42,4.14-1.46,5.07-.72,1.32,1.04,2.1,3.45,2.13,5.29.09,4.63-5.01,8.94-10.27,9.43-8.54.8-16.24-1.46-23.36-6.03-4.99-3.2-7.63-7.79-7.62-13.71,0-4.09.35-8.18.61-12.27.51-8.07,3.88-14.67,10.92-19.6-4.88-.55-6.6-1.91-5.81-6.13.78-4.14,2.31-8.53,4.77-11.89,4.75-6.49,11.6-10.04,20.76-10.46-8.87-3.85-17.09-6.85-24.77-10.88-9.97-5.23-20.02-4.73-30.25-1.84-2.64.74-5.23,2.42-7.27,4.28-2.29,2.1-1.1,5.23,1.95,6.05,3.27.88,4.81,3.1,4.55,6.35-.26,3.39-2.54,5.11-5.76,5.3-8.56.49-15.5-3.27-19.87-10.15-12.05-18.98-.36-42.7,23.09-44.84,2.25-.21,5.74-1.66,6.39,2.7.04.24.58.54.92.59,6.95,1.09,13.9,2.14,20.78,3.19-2.82-2.39-5.92-4.76-8.69-7.45-3.32-3.23-6.41-6.7-9.53-10.14-3.52-3.89-7.87-5.17-12.96-4.47-2.71.37-5.43.71-8.15.93-2.41.2-3.18-1.03-2.6-3.32,1.06-4.17,3.89-6.85,7.52-8.73,2.28-1.18,4.75-1.99,7.52-3.12-6.47-8.5-13.52-15.72-24.18-18.11-5.01-1.12-6.68.44-6.8,5.58-.07,2.83,1.2,6.54-3.03,7.45-3.84.82-6.43-1.46-8.45-4.53-6.99-10.63-1.18-26.52,11.37-29.95,11.68-3.19,22.45-1.01,31.71,7.2,3.23,2.86,6.5,5.67,9.82,8.57-.08-.46-.04-1.18-.32-1.75-2.05-4.16-4.27-8.24-6.23-12.44-2.05-4.38-5.81-5.86-10.17-6.6-3.06-.52-5.4-1.77-5.62-5.41-.31-5.08,6.35-9.32,12.27-7.71,1.93.52,3.86,1.06,6.65,1.83-.73-3.59-1.08-6.49-1.93-9.23-1.41-4.56-3.08-9.05-4.8-13.5-.42-1.09-1.33-2.07-2.23-2.87-2.24-1.99-4.38-2.71-6.41.51-.59.93-2.56,2.03-3.14,1.7-1.51-.85-3.36-2.26-3.72-3.77-1.29-5.35,4.39-13,9.91-13.48,3.66-.32,7.38-.16,11.05.11,4.76.35,9.17,1.67,11.69,6.56.46-.17.92-.35,1.38-.52-.19-3.06.19-6.31-.69-9.16-2.89-9.39-7.75-17.79-14.43-25.03-1.62-1.76-3.81-3.08-5.94-4.24-.88-.48-2.77-.49-3.36.11-2.91,2.99-5.7,1.33-7.47-.71-1.92-2.22-3.64-5.28-3.92-8.13-.9-9.22,9.18-17.92,18.1-15.52,5.24,1.41,10.11,4.18,15.66,6.57-5.62-6.95-10.97-13.83-16.63-20.46-4.49-5.27-8.57-10.67-9.97-17.63-.76-3.77-.18-7.29,2.14-11.09,2.35,1.79,4.39,3.76,6.79,5.09,4.51,2.49,9,5.6,13.9,6.7,12.8,2.89,21.51,10.75,28.6,21.09.85,1.23,1.71,2.46,2.61,3.65.12.16.47.13,1.02.26,0-1.77-.12-3.49.02-5.19.32-3.71,2-6.62,5.73-7.69,3.76-1.08,6.72.5,8.85,3.59,6.18,8.96,7.89,18.76,5.28,29.32-.61,2.47-1.28,4.92-1.77,6.78,4.71-.96,9.2-2.11,13.77-2.71,1.92-.25,4.19.26,5.92,1.16,1.48.77,3.42,2.64,3.35,3.92-.09,1.64-1.81,3.36-3.15,4.72-1.95,1.97-4.78,3.29-6.18,5.54-3.74,6.03-7,12.37-10.28,18.68-1.65,3.17-.87,4.2,2.65,4.12,2.19-.05,4.38-.21,6.56-.06,3.39.24,4.15,1.58,2.32,4.5-1.12,1.79-2.58,3.98-4.38,4.61-6.06,2.12-10.95,5.39-13.94,11.63,1.9.74,4.02,1.54,6.11,2.4,6.65,2.72,9.86,9.33,7.13,15.66-1.83,4.23-7.12,9.12-12.77,6.11-2.77-1.48-4.58-.24-6.46,1.67-7.39,7.5-11.31,16.21-11.83,26.99-.62,12.79-.63,25.41,2.29,37.92.14.6.37,1.17.94,1.73-1.24-10.36,2.96-19.64,5.39-29.21,1.68-6.62,5.8-11.71,11.56-15.39,7.17-4.57,19.66-3.2,25.62,2.74,3.23,3.22,2.86,5.04-1.54,6.09-4.46,1.07-7.97,3.47-9.66,7.55-3.14,7.55-6.14,15.21-8.45,23.05-2.56,8.68,1.11,16.65,4.19,24.58,1.95,5.03,3.78,10.12,5.68,15.17.35.94.8,1.85,1.56,3.6,0-7.04-.93-13.28.22-19.11,1.62-8.24,6.69-14.83,14.97-17.55,3.07-1.01,6.99-.17,10.33.64,2.55.62,1.8,3.18.75,4.8-5.2,8.01-1.54,16.2-.51,24.3.08.66,2.6,1.67,3.73,1.41,3.48-.8,4.67-.09,4.18,3.34-2.14,15.08,4.03,27.14,13.7,37.93.5.56,1.2.95,1.78,1.4,0-4.24-.66-8.4.14-12.25,1.5-7.22,11.67-10.89,17.89-6.9,2.87,1.84,3.11,6.88-.09,9.69-3.02,2.65-2.47,5.32-.87,8.01,3.61,6.06,8.98,10.46,15.3,13.17,11.29,4.84,22.8,9.19,34.32,13.48,10.21,3.81,18.83,10.03,26.5,17.5,2.39,2.32,4.21,5.88,4.9,9.17,2.57,12.17-2.04,21.9-11.26,29.82-6.88,5.91-22.92,4.22-28.74-2.49-3.45-3.98-4.74-14.7-1.91-19.08,2.78-4.3,7.09-5.43,11.86-4.72,4.15.62,6.92,3.04,7.81,7.32.12.58.41,1.13.77,2.08,1.91-5.93-.33-10.73-6.33-14.16-7.8-4.47-16.27-6.79-25.18-5.72-6.86.83-13.59,2.79-20.37,4.31-4.51,1.01-6.71,4.48-8.36,8.33-.86,2.02-1.36,4,1.5,5.46,2.25,1.15,2.27,3.17.09,4.93-2.71,2.17-5.52,2.94-8.7,1.11-4.03-2.31-7.31-5.28-8.34-9.58-5.58,2.86-10.96,5.68-16.4,8.37-2.85,1.41-5.45-.91-5.85-5.06-.76-7.76,1.1-14.92,4.84-21.68,1.04-1.88,1.94-3.84,2.99-5.93-1.3-.64-2.22-1.09-4.07-1.99,4.08-1.48,7.59-2.3,10.62-4,3.05-1.72,5.61-4.31,8.54-6.64-12.91,1.67-26.63-2.63-39.28,4.19-2.97,1.6-5.56,3.88-8.36,5.81-1.79,1.24-3.5,2.72-5.48,3.54-3.33,1.37-5.75-.19-7.52-3.12-1.68-2.77-.96-4.7,1.51-6.67,2.06-1.64,3.67-3.84,5.47-5.79,2.53-.35,5.05-.7,7.26-1-1.43,1.82-3.15,4.01-4.88,6.2.23.27.45.55.68.82,7.17-8.3,17.06-9,26.83-10.22-2.65-.36-5.29-.71-7.94-1.07.04-.37.08-.73.12-1.1,12.93.97,25.86,1.94,38.79,2.91l.36-1.34c-5.38-2.08-10.69-4.4-16.17-6.2-7.91-2.59-15.95-4.74-23.9-7.22-1.82-.57-3.46-1.71-5.18-2.59.16-.37.32-.74.48-1.11,7.43,2.58,14.87,5.15,22.3,7.73-.55-1.19-1.3-1.83-2.17-2.13-5.7-1.96-11.17-4.18-15.89-8.2-1.49-1.27-4.29-1.11-6.52-1.39-1.76-.22-3.73.36-5.32-.21-3.6-1.26-7-3.05-10.52-4.56-11.8-5.07-22.74-3.05-32.82,4.36-4.21,3.1-6.71,7.39-6.88,13.93,5.98-2.62,11.31-5.15,16.79-7.32,5.85-2.32,11.93-3.91,18.95-4.99-6.85,3.81-12.68,7.49-18.87,10.38-6.85,3.2-11.6,8.32-16.04,14.21-5.75,7.62-6.92,15.92-4.85,24.84.59,2.53,2.33,4.79,3.54,7.17.33-.15.65-.31.98-.46-2.53-5.4-4.95-10.82-2.86-17.12.76,2.81,1.51,5.61,2.27,8.42-.66-10.94,9.53-20.75,16.44-24.8-.07.26-.07.55-.22.73-.42.54-.88,1.05-1.36,1.53-6.01,5.97-9.47,13.27-11.23,21.46-1.11,5.16.65,9.4,4.75,12.16-.21-2.98-.77-6.31-.6-9.61.43-8.54,6.15-14.17,12.09-19.1,4.44-3.68,9.68-6.91,15.1-8.76,5.37-1.84,11.42-1.71,17-2.42-3.41,2-6.93,4.07-10.44,6.13ZM58.46,333.91c13.65,2.52,26.22,7.87,38.36,14.66-4.04-4.06-7.89-8.9-12.88-10.93-10.71-4.36-21.81-8.14-33.53-8.91-10.22-.68-19.29,1.99-25.55,10.77-1.08,1.51-1.25,3.67-1.84,5.53,8.86-11.71,22.6-16.19,35.57-11.03h-15.12c0,.43.01.87.02,1.3h16.53c-.76-.68-1.15-1.03-1.55-1.39ZM47.98,151.7l.14.12c-2.26-.81-4.55-2.28-6.78-2.21-1.74.06-4.06,1.67-4.96,3.26-1.62,2.84-.05,4.1,3.25,4.26,2.52.12,5.61.76,7.36,2.36,4.81,4.39,9.18,9.3,13.49,14.2,4.55,5.17,6.97,11.35,7.57,18.22.42,4.79.76,9.58,1.14,14.38,2.56-5.98,3.4-12.23,2.02-18.49-1.35-6.12-3.02-12.23-5.24-18.08-3.25-8.57-8.44-15.56-17.99-18.01ZM30.59,264.05c-6.39-2.35-12.73-3.63-18.83.99,2.39-.3,4.79-.61,6.97-.88-2.85,1.9-6.12,3.28-8.19,5.68-2.17,2.51-3.18,6.01-2.14,9.57.61-1.05.71-2.2.95-3.31.98-4.57,4.2-7.84,7.89-7.51,10.42.93,20.05,3.59,27.51,11.81,6.55,7.23,12.38,14.83,16.83,23.57,3.58,7.02,8.69,13.02,14.46,18.44-.64-1.94-1.64-3.65-2.59-5.38-10.26-18.67-19.82-37.89-38.83-49.74-1.49-.93-2.76-2.19-4.14-3.3,2.24.5,4.52.84,6.7,1.54,6.66,2.12,11.06,7.27,15.53,12.16,4.19,4.59,7.97,9.55,11.93,14.35-1.03-3.22-2.8-6.05-4.19-9.04-5.54-11.91-14.96-19.8-26.86-24.37-5.28-2.03-11.38-2.1-17.15-2.55-1.58-.12-3.31,1.59-4.96,2.46,1.7,2.35-.76,2.52-1.78,3.5-.4.38-.56,1-.68,1.22,3.85-1.13,7.62-3.02,11.45-3.14,3.91-.13,7.88,1.47,11.83,2.31-.07.35-.14.69-.22,1.04-.5.2-1,.39-1.51.59ZM187.73,448.47c-1.12-1.88-3.16-3.74-3.16-5.59,0-5.72,5.84-12.5,11.41-14.26,1.43-.45,3-.8,4.17-1.65,7.22-5.23,15.54-5.77,23.93-5.51,11.59.36,22.2,3.19,29.56,13.23,3.91,5.33,3.91,13.7-.18,18.8-2.82,3.51-6.62,4.79-9.64,2.62-1.52-1.09-2.22-3.32-3.29-5.03,1.54-.61,3.08-1.22,4.65-1.84-1.48-3.37-3.11-3.6-7.57-.65-.22-.45-.45-.92-.78-1.6-3.88,6.16-4.07,9-1.03,12.1,4.82,4.91,14.12,5.84,20.21,2.52,9.4-5.13,11.48-13.64,11.41-23.28-.04-5.29-2.27-9.91-6.44-12.73-9.43-6.38-18.6-13.36-29.71-16.79-2.73-.84-5.61-1.23-8.34-2.08-16.18-4.99-31.77-3.29-46.3,5.06-11.72,6.73-19.41,16.68-20.09,30.85-.07,1.57.5,3.17.78,4.76.39,0,.78,0,1.17,0,1.84-5.5,3.17-11.24,5.67-16.42,2.6-5.4,7.2-9.3,12.99-11.59-2.43,2.31-4.87,4.63-7.3,6.94.19.21.39.42.58.63,1.73-1.19,3.46-2.38,5.43-3.73-1.55,4.28-3.52,7.45-7.46,9.82-3.38,2.03-6.39,5.34-7,9.72.28.32.56.64.84.96,2.05-1.36,4.1-2.72,6.53-4.34-.47,1.74-.78,2.94-1.1,4.14.33.21.65.41.98.62,4.5-5.89,8.99-11.78,13.83-18.11-1.11,5.23-2.74,9.69-2.83,14.19-.11,5.12,4.53,8.72,8.1,8.25ZM68.69,134.64l.93-.63c6.27,8,11.19,17.06,12.14,27.1.93,9.79-.61,19.81-1.05,29.37,1.96-2.29,4.47-4.97,6.68-7.89,1.12-1.48,2.05-3.3,2.44-5.11,2.74-12.48,2.52-24.68-1.31-37.17-3.52-11.48-10.8-18.67-20.93-23.72-8.63-4.31-18.29-6.6-25.72-13.26-.4-.36-1.11-.39-1.54-.53-.86,5.78,1.71,10.05,5.05,13.96,2.21,2.59,4.72,4.93,6.94,7.51,3.63,4.22,7.43,8.33,10.63,12.87,8.09,11.48,13.78,23.93,13.55,38.37-.08,4.9-.5,9.79-.77,14.68,3.04-10.54,5.98-21.08,1.8-32-3-7.83-5.9-15.7-8.84-23.56ZM66.66,275.95c.34-.03.67-.06,1.01-.09.21-.33.56-.64.61-.99.2-1.35.43-2.71.42-4.07-.1-9.99,2.32-19.46,5.39-28.89,4.09-12.56,12.09-21.44,23.82-27.26,2.29-1.14,4.68-2.64,6.21-4.61,3.56-4.58,7.8-7.91,13.37-9.54.11-.03.11-.43.16-.67-10.38-.16-18.34,5.56-27.23,11.32,1.67-2.05,2.8-3.45,3.93-4.84-.34-.28-.67-.57-1.01-.85-3.74,4.48-7.48,8.96-11.44,13.69.44-1.61.82-3.01,1.2-4.42-.33-.11-.66-.22-.99-.33-2.49,6.24-4.98,12.49-7.47,18.73-.28-21.22,29.39-63.63,42.74-66.12-3.94,4.48-7.73,8.63-11.34,12.93-6.14,7.3-12.25,14.62-18.17,22.1-1.17,1.48-1.4,3.69-2.03,5.47,3.71-2.1,7.03-4.46,10.71-5.93,3.9-1.56,8.13-2.28,13.43-3.69-5.21-2.19-4.38-4.8-2.59-7.65,3.99-6.35,7.9-12.75,11.89-19.1,2-3.18,4.13-6.29,6.88-10.47-3.04,0-5.09-.49-6.76.09-7.17,2.47-14.16,5.66-18.81,11.85-13.28,17.69-26.65,35.31-30.33,58.16-2.15,13.35-5.23,26.54-4.34,40.19.11,1.68.49,3.34.74,5.01ZM132.98,370.14c-5.62-5.26-11.2-10.56-16.87-15.77-11.73-10.77-22.31-22.54-30.78-36.05-6.76-10.8-10.19-29.39-7.74-41.19,1.16,11.94.29,23.57,8.8,33.32-.17-1.13-.17-1.66-.33-2.15-4.78-14.42-4.21-29.11-2.29-43.87,1.07-8.28,3.44-16.08,8.94-22.56,3.9-4.6,7.74-9.71,15-5.82.23.12.58.21.8.12,1.29-.53,2.9-.84,3.69-1.81.37-.45-.54-2.58-1.41-3.3-3.96-3.29-8.48-4.18-13.43-2.47-7.11,2.45-12.05,7.36-15.57,13.82-7.18,13.21-8.43,27.94-9.87,42.42-1.5,15.11,4.56,28.69,11.3,41.8,4.92,9.56,13.27,16.24,20.56,23.81,8.33,8.64,18.77,14.15,29.19,19.71ZM123,265.54c-7.06-1.28-16.32,3.94-19.94,10.46-9.73,17.53-9.87,35.55-2.4,53.74,1.99,4.84,5.33,9.13,8.05,13.67.5-.22,1-.44,1.51-.67-6.08-8.85-6.15-19.08-7.11-29.02-1.01-10.33.04-20.47,6.19-30.04-12.13,40.88,5.9,72.66,23.91,80.63-1.49-2.1-2.39-3.33-3.27-4.59-5.13-7.39-11.04-14.36-15.24-22.25-10.62-19.98-9.65-46.04,6.92-62.94,2.57-2.62,5.89-4.5,8.82-6.69-2.55-1.36-8.5.19-11.48,3.06-3.13,3-6.29,5.96-9.68,9.16v-2.76c-1.26,1.63-2.16,2.81-3.06,3.99,2.32-8.38,8.21-13.12,16.79-15.74ZM148.88,356.53c-2.11-13.92-5.3-27.83-2.37-42.1-1.14-.43-2.42-.92-4.12-1.57-1.57,3.19-3.15,6.41-4.73,9.63.17.09.34.18.51.27.9-1.26,1.79-2.53,2.86-4.04,1.88,7.16-4.58,13.55-.05,20.4-.59.05-1.17.1-1.76.15-.76-4.33-1.52-8.66-2.32-13.18-2.42,5.75-2.02,11.34.21,16.81,3.04,7.47,6.11,14.93,9.5,22.24,3.65,7.88,8.95,14.5,16.59,19.11-2.63-3.64-5.25-7.28-7.88-10.93.27-.18.55-.36.82-.54,2.25,2.73,4.37,5.57,6.78,8.15,2.51,2.68,5.22,5.19,8.01,7.59,2.45,2.11,5.12,3.97,7.69,5.94l.84-.92c-15.77-11.12-25.9-25.48-25.94-45.66-.46-.01-.93-.02-1.39-.04-1.08,2.89-2.16,5.79-3.24,8.68ZM35.37,366.6c-1.23-4.97-1.26-9.89,2.94-13.22,3.23-2.57,7.07-5.17,10.99-5.94,15.36-3.05,30.1-.21,44.09,6.54,3.68,1.77,7.01,4.25,10.56,6.29,1.93,1.11,3.99,2.01,5.99,3-8.27-7.88-21.1-16.91-35.23-21.92-9.7-3.44-19.48-5.03-29.72-4.96-9.21.07-13.89,6.08-18.02,12.84-.85,1.39-.29,3.63-.38,5.48.36.03.72.06,1.08.09.84-1.51,1.62-3.06,2.52-4.54,3.07-4.98,7.05-8.86,13.2-9.29,3.8-.26,7.65-.01,11.46.22,2.95.18,5.88.68,8.81,1.04-3.62.38-7.19.09-10.7.44-7.4.74-15.06.87-20.08,8-2.26,3.21-2.99,5.46-1.56,9.43,1.93-8.17,5.63-12.68,10.94-13.36-9.42,7.82-11.59,13.77-6.91,19.86ZM35.46,204.57c6.22-1.55,11.2-.49,13.46,3.95,3.17,6.26,5.95,12.84,7.85,19.58,2.2,7.8,3.27,15.91,4.83,23.89,4.16-7.28,2.35-30.06-1.72-32.97-.05.52-.11,1.04-.26,2.49-3.78-7.31-4.04-15.41-11-19.88,6.9.41,10.9,4.18,12.65,10.34,1.77,6.27,3.21,12.64,4.89,19.36,1.61-4.27,2.26-8.19.88-12.28-.83-2.44-1.64-4.89-2.38-7.36-2.05-6.81-6.47-11.33-13.28-13.25-6.03-1.69-12.78.95-15.92,6.14ZM95.4,164.53c7.14-7.86,13.69-15.92,11.45-27.1-.85-4.25-3.35-8.21-5.42-12.14-.33-.62-2.68-.89-3.45-.36-.86.58-1.26,2.23-1.32,3.45-.04.9.79,1.84,1.31,2.91.74-.98,1.24-1.65,1.96-2.6,5.04,8.71,2.41,16.53-1.25,24.34,1.9-8.52-.13-16.43-3.55-24.25-.28.32-.77.62-.75.89.53,11.55,5.2,22.96,1.02,34.86ZM148.36,373.5c-10.52-18.09-21.25-35.86-10.78-57.62-4.95,3.67-7.35,8.63-8.07,14.53-1.82,14.89,3.81,27.57,11.85,39.49,1.5,2.22,3.56,4.06,7,3.6ZM191.4,391.69c-3.16-2.99-8.17-4.27-8.87-9.51-.58-4.32-1.25-8.63-1.9-13.03-2.78,1.72-2.6,4.74-2.27,7.7.26,2.29.54,4.64,1.27,6.81,2.24,6.7,5.96,12.54,12.86,14.95,3.71,1.29,7.99.94,12.49,1.38-8.51-7.83-20.89-12.74-17.73-27.47,4.02-.59,4.05-.63,2.84-3.91-5.15.73-7.05,3.4-6.41,8.47.74,5.88,4.21,10.2,7.71,14.62ZM73.47,181.22c.46-.13.91-.27,1.37-.4-1.38-4.85-2.6-9.74-4.17-14.53-3.21-9.79-9.18-17.32-18.77-21.55-4.97-2.19-9.64-1.13-14.92,1.8,4.34.6,7.88.61,11.11,1.61,11.57,3.61,17.88,12.4,21.91,23.23,1.21,3.26,2.32,6.56,3.48,9.84ZM38.23,241.94c2.2.57,3.67,1.18,5.17,1.29,3.76.28,6.39,2.28,8.26,5.29,1.42,2.29,2.51,4.8,3.66,7.25,1.41,2.99,2.74,6.02,4.1,9.03.44-.94.2-1.68.19-2.42-.03-9.9-5.9-16.17-13.32-21.45-2.49-1.77-4.94-1.66-8.06,1.01ZM91.49,227.63c7.1-3.03,14.1-4.76,21.32,1.55-.67-4.32-2.64-5.98-5.67-6.71-6.28-1.52-11.15,1.14-15.65,5.16ZM42.24,300.25c5.94,2.75,11.71,5.43,16.74,7.76-5.66-5.96-11.52-10.33-16.74-7.76ZM108.83,435.43c-5.94,2.97-10.89,2.91-15.78-1.39,3.2,6.04,10.94,6.89,15.78,1.39ZM52.85,298.81c-4.74-4.53-11.64-3.55-14.93,1.91,4.31-4.4,9.42-3.19,14.93-1.91ZM55.44,245.78c-.12-4.96-4.25-5.62-7.89-6.82l.78-.77c2.37,2.53,4.74,5.06,7.1,7.59ZM32.73,370.38c-1.86-2.69-3.72-5.38-5.83-8.42-.29,4.57,2.51,6.67,5.83,8.42Z"/>
    <path d="M133.16,71.6c26.99-3.24,44.78-15.85,48.45-42.85,13.44-3.42,26.21-6.88,39.09-9.88,23.81-5.55,47.5-11.96,71.58-15.92,29.9-4.93,60.09-3.45,89.76,2.83,31.54,6.68,62.89,14.27,94.33,21.43,1.92.44,3.02,1.08,3.18,3.42,1.22,18.08,11.48,29.68,27.49,36.43,5.79,2.44,12.29,3.21,18.96,4.86,0,12.33.03,25.16,0,38-.07,28.73.08,57.47-.33,86.19-.33,23.16-2.73,46.14-8.79,68.6-3.72,13.78-9.14,26.89-15.63,39.6-9.67,18.94-20.41,37.27-34.89,52.91-13.53,14.62-26.84,29.61-43.68,40.74-2.28,1.51-4.56,3.01-6.88,4.45-9.76,6.03-19.42,12.21-29.33,17.97-5.41,3.14-11.23,5.58-16.89,8.3-11.58,5.57-23.23,10.98-34.71,16.75-3.56,1.79-6.44,1.61-10,.03-27.66-12.26-54.5-26.01-80.34-41.82-10.28-6.29-19.4-13.74-27.66-22.29-12.24-12.67-25.16-24.88-35.92-38.75-24.5-31.59-40.47-67.35-44.72-107.32-2.4-22.51-2.54-45.3-2.89-67.98-.47-29.95-.16-59.91-.19-89.87,0-1.89,0-3.78,0-5.8ZM140.92,148.03l-.83.04c1.12,26.22,1.46,52.5,3.59,78.64,1.76,21.58,7.26,42.59,16.01,62.53,19.38,44.15,48.9,79.84,88.74,107.22,24.52,16.85,51.55,28.67,78.31,41.11,1.38.64,3.55.62,4.97,0,21.87-9.37,43.45-19.31,63.9-31.58,24.47-14.68,46.6-32.06,64.84-54.16,20.59-24.95,36.23-52.61,46.08-83.52,8.95-28.09,11.14-57.09,11.61-86.27.47-29.54.29-59.1.33-88.65,0-4.06,1.18-9.29-.86-11.88-2.22-2.82-7.5-3.34-11.52-4.61-18.73-5.9-30.73-18.22-35.57-37.29-.66-2.59-1.78-3.9-4.38-4.55-23.19-5.77-46.29-11.96-69.55-17.41-18.9-4.43-38.03-7.65-57.55-8.09-16.98-.38-34.06-1.08-50.67,2.69-31.44,7.14-62.68,15.15-94.03,22.72-2.66.64-3.57,2.05-4.33,4.6-5.55,18.79-17.47,31.47-36.42,37.2-3.01.91-5.99,1.93-9.03,2.73-2.83.74-3.72,2.29-3.7,5.3.15,21.07.08,42.14.08,63.2Z"/>
    <path d="M492.94,386.73c-.53.1-1.06.24-1.59.27-.22.01-.46-.22-.58-.28,4.78-5.46,9.57-10.93,14.36-16.4.2.1.4.19.6.29-2.64,4.25-5.28,8.5-7.92,12.75-1.62,1.12-3.25,2.24-4.87,3.37Z"/>
    <path d="M520.44,392c.78.5,1.5.97,3.05,1.97-11.02.59-21.26,1.14-31.49,1.69-.06-.07-.12-.15-.19-.22,12.03-3.25,24.07-6.49,36.1-9.74.27.65.54,1.3.8,1.95-2.68,1.4-5.35,2.81-8.28,4.34Z"/>
    <path d="M535.75,377.8c14.77-7.16,30.37-2.25,36.15,8.56-10.31-10.41-22.81-11.16-36.15-8.56Z"/>
    <path d="M552.98,393.3c10.65,1.8,20.5,10.07,21.07,17.32-5.48-8.17-12.53-13.64-21.07-17.32Z"/>
    <path d="M585.89,132.85c5.37-9.06,12.23-16.55,22.26-20.5.3.32.6.63.9.95-3.67,3.38-7.22,6.89-11.03,10.1-3.92,3.3-8.08,6.31-12.13,9.45Z"/>
    <path d="M495.05,438.94c-6.95-6.54-14.04-13.22-20.74-19.52,8.99,1,20.06,11.25,20.74,19.52Z"/>
    <path d="M498.85,440.95c-4.36-7.15-8.52-14-12.9-21.18,6.92,5.69,10.8,12.79,12.9,21.18Z"/>
    <path d="M550.58,276.98c-5.84-3.47-11.47-6.82-16.93-10.07,2.72-1.74,8.49-.1,14.5,4.43,3.14,2.37,3.29,2.73,2.43,5.64Z"/>
    <path d="M525.03,335.04c-1.14-1.6-2.39-3.34-3.43-4.82-1.16,4.73-2.33,9.51-3.5,14.29-.42-.09-.83-.19-1.25-.28.98-3.86,1.97-7.72,2.94-11.54-3.09-1.36-4.02-10.58-1.47-13.9-1.3-1.56-2.64-3.15-4.19-5.01,8.33,2.26,12.28,10.42,10.9,21.27Z"/>
    <path d="M458.25,420.37c-8.08-.96-16.16-1.92-24.23-2.88.05-.4.11-.8.16-1.19,8.05,1.08,16.1,2.17,24.15,3.25-.02.27-.05.55-.07.82Z"/>
    <path d="M604.96,209.38c-1.31,3.95-2.63,7.9-3.94,11.85-.34-.11-.67-.22-1.01-.33,1.28-3.97,2.56-7.94,3.84-11.91.37.13.74.26,1.11.39Z"/>
    <path d="M560.5,152.23c-5.41-11.93-6.51-16.66-.07-24.29,2.46,2.27,2.28,4.39,1.1,7.56-1.37,3.68-1.26,7.93-1.57,11.95-.12,1.57.34,3.19.53,4.78Z"/>
    <path d="M236.91,455.8c7.6,5.85,14.96,5.23,20.28-2.19,4.93-6.87,6.58-12.66,3.11-19.2-.51-.96-1.04-2.07-1.87-2.65-10.71-7.42-21.54-14.59-35.3-15.21.85-.17,1.69-.34,2.54-.51-13.78-5.32-24.79,3.74-37.29,6.49,1.66-.87,3.3-1.77,4.98-2.6,1.72-.85,3.52-1.52,5.19-2.44,14.5-7.96,28.79-7.13,42.96.88,5.19,2.93,10.23,5.71,14.59,10.21,2.9,3,6.13,5.32,7.65,9.46,3,8.16-3.38,19.53-9.37,22.62-5.56,2.87-10.64,1.35-15.46-1.75-.94-.61-1.35-2.04-2.01-3.1Z"/>
    <path d="M125.83,388.78h16.71c-.59,1.3-.84,1.86-.88,1.94,7,1.42,14.06,2.85,21.13,4.28-.07.34-.14.68-.21,1.02-9.36-.66-18.72-1.31-28.38-1.99.51-.61,1.02-1.22,1.51-1.81-3.05-1.06-6.14-2.14-9.87-3.44Z"/>
    <path d="M123.32,379.08c-13.82-3.61-26.89-4.02-37.41,7.9,8.92-14.89,23.84-14.74,37.41-7.9Z"/>
    <path d="M114.21,391.86c-5.7,2.26-11.39,4.52-15.95,6.34,5.03-6.11,16.15-8.74,26.56-5.53-4.51,1.02-9.23,2.1-15.09,3.43,2.3-1.38,3.67-2.2,5.03-3.02-.18-.4-.36-.81-.54-1.21Z"/>
    <path d="M83.07,409.59c.58-4.4,9.52-13.08,17.47-16.03-6.1,5.59-12.04,11.05-17.47,16.03Z"/>
    <path d="M51.36,113.36c10.41,3.27,16.17,11.4,21.48,20.01-7.17-6.69-16.25-11.28-21.48-20.01Z"/>
    <path d="M86.8,241.8c3.47-7.85,8.78-11.61,15.05-10.88-6.78,1.24-11.23,5.64-15.05,10.88Z"/>
    <path d="M47.98,151.7c3.47,2.8,7,5.53,10.36,8.45,1.06.92,1.67,2.36,2.51,3.58-3.74-2.34-7.15-5.05-11-6.7-3.75-1.6-7.96-2.11-12.16-3.15,2.75-3.79,6.66-2.65,10.44-2.05l-.14-.12Z"/>
    <path d="M148.26,150.4c0-20.11.06-40.22-.07-60.32-.02-3.21.72-4.74,4.14-5.58,21.38-5.23,35.98-18.3,43.62-38.95,1.07-2.88,2.62-4.36,5.63-5.08,26.56-6.41,53.13-12.81,79.6-19.55,13.81-3.52,27.83-3.81,41.91-4.31,30.12-1.08,59.29,4.75,88.32,11.69,15.95,3.82,31.8,8.06,47.73,11.97,2.81.69,4.33,2,5.17,4.85,4.15,14.16,12.87,25.07,25.35,32.57,5.53,3.32,12.04,5.05,18.21,7.19,2.02.7,2.85,1.37,2.84,3.59-.14,38.16.65,76.34-.54,114.47-1.02,32.75-8.14,64.5-22.88,94.13-13.9,27.95-31.84,52.87-55.33,73.64-21.17,18.72-44.81,33.53-70.45,45.27-9.44,4.32-18.79,8.85-28.31,12.98-1.9.83-4.76,1.04-6.59.22-28.61-12.76-57.23-25.66-82.43-44.61-27.42-20.62-49.65-45.87-66.7-75.83-19.95-35.06-28.15-72.91-28.74-112.77-.22-15.18-.04-30.37-.04-45.56-.15,0-.3,0-.45,0ZM503.73,147.03c0-16.56-.19-33.11.12-49.66.09-4.62-1.38-6.83-5.7-8.23-19.9-6.47-33.04-20.09-41-39.18-.61-1.45-2.39-2.92-3.93-3.39-7.18-2.21-14.42-4.23-21.71-6.03-30.8-7.61-61.59-15.5-93.6-15.71-14.73-.1-29.56-.03-44.18,1.55-12.56,1.35-24.94,4.7-37.3,7.6-15.57,3.65-31.04,7.69-46.53,11.69-2.82.73-5.89,1.21-7.17,4.7-7.04,19.22-20.89,31.59-39.55,39.11-7.46,3-7.42,3.07-7.31,10.93.02,1.5-.15,3-.16,4.5-.02,24.76.08,49.53-.06,74.29-.12,20.99,1.3,41.81,5.86,62.34,2.79,12.54,5.87,24.95,10.58,36.99,6.51,16.65,14.37,32.7,24.57,47.19,16.08,22.83,36.37,41.92,58.95,58.29,21.7,15.73,46.17,26.58,70.44,37.64,2.02.92,5.19.71,7.31-.19,10.57-4.46,21.25-8.81,31.35-14.2,11.31-6.03,22-13.22,33.04-19.76,19.39-11.5,35.72-26.68,50.29-43.56,21.17-24.54,36.02-52.84,45.07-83.92,5.97-20.49,9.96-41.5,10.52-62.93.44-16.67.09-33.36.09-50.04Z"/>
    <path d="M307.59,216.94c-6.39-6.7-12.44-13.2-18.65-19.53-17.72-18.04-35.71-35.83-53.2-54.1-8.97-9.37-17.21-19.45-25.55-29.39-6.59-7.84-9.7-17.55-14.4-27.17,1.79,0,2.88-.2,3.86.03,12.25,2.89,24.35,5.7,33.94,15.05,24.28,23.66,48.89,46.97,73.37,70.41,7.49,7.18,14.97,14.36,22,21.09,6.75-6.44,13.65-12.84,20.35-19.43,21.15-20.81,42.05-41.87,63.41-62.45,7.81-7.53,15.41-15.63,26.08-19.53,6.15-2.25,12.25-4.54,19.49-4.32-.67,6.43-3.63,11.82-6.45,17.14-2.16,4.08-5.04,7.8-7.78,11.55-14.5,19.83-31.82,37.13-48.98,54.58-14.75,15.01-29.4,30.12-44.41,45.5,2.3,2.39,4.46,4.58,6.57,6.82,10.65,11.37,21.24,22.81,31.95,34.13,4.52,4.77,5.47,4.82,10.49.74,3.9-3.17,7.65-6.56,11.24-10.08,1.18-1.16,1.82-2.99,2.4-4.63,1.42-3.98,4.72-6.94,7.88-6.8,3.02.13,6.34,3.44,7.08,7.07,1.01,4.9-.09,8.46-4.41,9.77-9.69,2.94-14.33,11.35-20.73,17.87-.36.37-.52.93-.84,1.52,8.59,8.27,17.18,16.44,25.64,24.73,2.64,2.59,4.8,5.66,7.42,8.26,3.2,3.16,6.76,5.95,9.98,9.1,6.18,6.04,6.1,10.31-.02,16.37-3.48,3.45-7.12,6.46-12.48,5.95-3.98-.38-7.64-2.19-8.86-5.75-2.18-6.33-6.7-10.52-11.26-14.81-8.26-7.77-16.72-15.34-24.92-23.16-2.44-2.33-4.11-2.1-6.46.04-4.24,3.86-8.97,7.19-13.04,11.21-2.02,1.99-3.38,4.88-4.4,7.61-1.4,3.71-4.08,6.15-8.09,6.34-3.31.15-8.48-2.83-9.35-5.69-.86-2.8-.36-5.46,2.03-7.44.73-.6,1.62-1.33,2.47-1.39,7.61-.51,10.82-6.49,14.79-11.6,2.67-3.43,5.53-6.71,8.13-9.86-14.75-14.93-29.32-29.68-44.15-44.68-14.77,15.1-29.44,30.09-44.39,45.38,4.64,5.41,9.87,11.67,15.34,17.7.94,1.04,2.89,1.18,4.4,1.67,3.64,1.17,7.03,2.73,7.83,6.95.66,3.5-1.05,6.1-3.88,7.97-5.16,3.41-12.19.01-13.2-6.09-.3-1.81-1.43-3.83-2.8-5.04-5.34-4.69-10.98-9.03-16.39-13.64-2.05-1.75-3.38-1.79-5.48.2-4.95,4.69-10.42,8.83-15.38,13.51-5.26,4.96-9.98,10.49-15.32,15.35-3.03,2.77-4.93,5.75-6.09,9.67-.55,1.85-2.76,3.81-4.67,4.54-7.46,2.86-18.19-2.41-21.02-9.94-2.22-5.91,1.31-12.35,7.93-14.84,1.29-.49,2.32-1.75,3.37-2.77.57-.56.82-1.45,1.39-2.01,3.65-3.57,7.46-6.98,11.02-10.65,5.04-5.19,9.9-10.54,14.83-15.83.75-.8,1.43-1.66,2.19-2.44q5.51-5.61.47-11.91c-1.79-2.24-3.5-4.55-5.44-6.65-2.14-2.3-4.51-4.08-7.95-4.49-3.87-.46-6.24-3.81-6.14-7.52.13-4.45,3.32-9.33,6.57-10.02,2.94-.63,6.62,1.73,8.31,5.38,2.4,5.18,5.61,9.64,10.44,12.87,2.37,1.58,4.55,3.44,7.7,5.85,14.77-14.81,29.58-29.64,44.21-44.3ZM241.12,313.64c-3.33,1.34-6,.23-8.37-2.19-.75-.77-1.54-1.61-2.48-2.06-.69-.33-1.99-.41-2.41.01-.52.53-.86,1.98-.5,2.49.73,1.04,1.87,1.92,3.03,2.49,1.22.59,2.85.43,3.96,1.14,3.15,2.02,5.25,1.34,6.67-2,3.14-3.36,6.28-6.72,9.93-10.62-3.91-.76-6.07-.86-5.62,3.16.11,1.02-.78,2.21-1.37,3.23-.87,1.49-1.88,2.9-2.83,4.34ZM275.67,171.21c.21.62.23,1.43.64,1.85,5.37,5.36,10.8,10.67,16.23,15.97.04.04.36-.23.75-.48-3.69-4-7.24-8.07-11.04-11.89-2-2.01-4.44-3.58-6.67-5.34-2.52-2.63-5.03-5.27-7.56-7.88-7.98-8.22-15.97-16.44-23.98-24.63-2.47-2.53-5.04-4.97-7.56-7.45l-.8.83c12.61,12.8,25.22,25.62,37.87,38.38.46.46,1.4.45,2.12.65ZM383.03,273.19c2.62-2.21,5.24-4.43,7.79-6.58-14.79-15.86-29.06-31.17-43.82-47-2.16,3.54-3.79,6.2-5.42,8.86.34.22.67.43,1.01.65,1.04-.84,2.07-1.68,3.55-2.87-.26,2.08-.43,3.42-.65,5.2,1.3-.84,2.11-1.36,3.17-2.04-.22,1.66-.38,2.89-.6,4.53,1.67-.88,2.85-1.51,4.54-2.39-.92,2.33-1.55,3.94-2.44,6.2,1.9-.8,2.9-1.21,4.39-1.84-.48,1.61-.78,2.61-1.05,3.5,2.05.54,3.97,1.04,5.91,1.55v3.44c1.22-.42,2.23-.77,3.69-1.27-.52,1.81-.88,3.06-1.39,4.84,1.43-.58,2.32-.94,3.65-1.48-.39,1.59-.66,2.7-1.1,4.49,1.44-1,2.27-1.58,2.81-1.96,1.75,1.91,3.37,3.69,5.22,5.72-.24,1.03-.58,2.53-1.03,4.49,1.39-.95,2.3-1.57,3.89-2.65-.61,2.18-.99,3.55-1.51,5.42,1.24-.53,2.1-.9,3.33-1.43-.09,1.21-.14,2.03-.21,2.97.95-.36,1.66-.63,2.59-.99-.49,1.72-.84,2.96-1.39,4.9,1.53-1.12,2.42-1.77,3.91-2.86-.45,1.66-.7,2.58-1.13,4.17,1.5-.91,2.37-1.44,3.77-2.28-.55,2.64-.98,4.72-1.41,6.8-2.23,1.24-3.91.89-5.59-1.22-1.12-1.4-2.93-2.24-4.44-3.33l-1.26,1.46c1.75,1.3,3.67,2.42,5.2,3.93,3.22,3.17,3.5,3.2,6-.92ZM423.56,113.87c-.32-.4-.63-.8-.95-1.19,4.92-4.29,9.84-8.57,14.76-12.86-.24-.28-.49-.57-.73-.85-4.41,3.58-9.05,6.92-13.19,10.79-6.88,6.44-13.36,13.3-20.15,19.84-13.79,13.27-27.9,26.22-41.47,39.71-17.84,17.73-35.26,35.87-52.9,53.8-13.23,13.45-26.54,26.82-39.73,40.31-.82.84-1.61,3.07-1.18,3.55,1.95,2.2,4.35,4.01,6.58,5.97.24-.25.47-.5.71-.76-1.29-2.18-2.59-4.36-3.88-6.54.26-.18.53-.36.79-.55,1.04.59,2.07,1.18,3.34,1.91.24-.91.41-1.58.62-2.38,1.05.67,1.96,1.25,3.6,2.29-.97-2.37-1.59-3.9-2.52-6.17,1.88,1.13,2.99,1.81,4.83,2.91-.98-2.31-1.56-3.68-2.45-5.77,1.77.97,2.76,1.51,4.3,2.35-.58-1.79-.95-2.92-1.55-4.79,2.11,1.35,3.51,2.25,5.04,3.23.26-2.49.48-4.58.74-7,1.53.92,2.59,1.56,3.06,1.84.65-2.11,1.23-4.01,1.85-6.04,1.32.74,2.08,1.17,3.56,2-.81-2.03-1.32-3.29-2.17-5.4,1.79,1.13,2.76,1.74,4.27,2.71-.88-2.16-1.45-3.58-2.43-5.99,1.94,1.51,2.99,2.32,4.03,3.13.16-.16.32-.32.49-.47-.45-1.16-.9-2.33-1.52-3.93,1.32.45,2.14.73,3.32,1.13-.29-1.3-.51-2.25-.89-3.97,1.96,1.44,3.24,2.38,4.52,3.32.17-.16.34-.33.51-.49-.74-1.54-1.48-3.08-2.57-5.33,2.08.87,3.28,1.38,4.06,1.7,1.14-1.19,2.05-2.15,3.11-3.25-.13-.48-.38-1.37-.73-2.64,1.53.92,2.58,1.55,4.43,2.67-.76-2.26-1.19-3.56-1.73-5.16,1.48.32,2.55.55,3.85.83-.14-1.3-.24-2.22-.25-2.37,1.35-.82,2.5-1.23,3.23-2.03,3.06-3.32,6-6.75,9.21-10.4-.25-.51-.76-1.52-1.66-3.35,1.79.91,2.77,1.4,4.13,2.09v-3.41c1.13.11,2,.2,3.18.32-.28-1.31-.48-2.24-.51-2.38,1.44-.42,3-.4,3.49-1.12,2.12-3.1,7.26-4.24,6.43-8.51,1.1-.4,2.29-.49,2.94-1.13,5.21-5.12,10.27-10.4,15.48-15.53,14.37-14.16,28.79-28.27,43.19-42.4,11.32-11.1,22.69-22.15,33.91-33.34,2.71-2.7,4.94-5.88,7.38-8.84-.28-.27-.56-.54-.84-.81-7.64,6.25-15.29,12.49-22.93,18.74ZM326.27,198.74c-.98-1.02-1.5-1.62-2.08-2.16-9.24-8.73-18.52-17.41-27.72-26.17-21.56-20.56-43.03-41.21-64.66-61.69-3.87-3.67-8.34-6.7-12.53-10.02-.17.22-.35.45-.52.67,4.49,3.85,8.98,7.69,13.47,11.54-.24.26-.47.52-.71.78-7.37-5.45-14.74-10.9-22.12-16.36-.07,1.17.36,1.7.83,2.18,13.77,13.91,27.54,27.82,41.38,41.66.46.46,1.66.18,2.51.27.33.04.66.15.97.22-.16,1.26-.29,2.34-.51,4.09,1.52-1.03,2.43-1.65,3.91-2.65-.32,1.81-.52,2.93-.8,4.51,1.39-.64,2.37-1.09,3.6-1.66-.41,1.8-.71,3.15-1.18,5.19,1.69-.72,2.68-1.14,4.09-1.74-.32,1.52-.55,2.61-.94,4.5,1.65-1.39,2.66-2.24,4.54-3.83-.87,2.39-1.34,3.68-2.05,5.61,1.37-.87,2.12-1.36,3.39-2.17-.33,1.63-.54,2.71-.86,4.27,1.29-.69,2.13-1.14,3.48-1.87-.39,1.65-.64,2.72-.88,3.77,1.07-.22,1.84-.39,3-.63-.61,1.48-1.01,2.45-1.19,2.88,2,1.1,3.79,2.09,6.08,3.35-.17.1.57-.34,1.86-1.11-.4,1.68-.65,2.75-.91,3.82.41-.18.83-.35,1.24-.53,1.19,1.78,2.38,3.57,3.56,5.35.51-.33,1.15-.74,1.23-.8,1.07,1.64,1.95,3.01,2.85,4.41,1-.69,1.82-1.26,3.49-2.41-1.09,2.99-1.84,5.06-2.96,8.13,1.97-1.45,3.05-2.24,4.49-3.3-.36,1.64-.59,2.71-.99,4.54,1.4-1.25,2.19-1.95,2.33-2.08,2.04,1.33,3.8,2.47,5.86,3.81.42.63,1.21,1.82,2.08,3.13-.21.8-.52,1.97-1.09,4.15,2-1.84,3.13-2.88,4.84-4.46-.46,2.16-.74,3.51-1.12,5.28,1.2-.61,1.97-.99,3.31-1.66-.52,2.07-.89,3.56-1.29,5.18,1.06-.37,1.88-.66,2.82-.98.26,1.46.47,2.6.76,4.2,1.21-1.04,2.08-1.78,2.81-2.41,1.04,2.08,1.99,3.98,2.92,5.83.98-.17,1.75-.3,2.7-.46-.61,1.57-1.07,2.74-1.52,3.91.28.21.55.43.83.64,2.42-2.21,4.84-4.41,7.42-6.76ZM279.28,278.39c45.05-46.19,89.7-91.96,134.36-137.74-2.94,1.46-5.37,3.42-7.58,5.61-20.66,20.49-41.32,40.98-61.89,61.55-16.48,16.47-32.86,33.04-49.23,49.6-3.89,3.94-7.58,8.08-11.41,12.08-1.99,2.08-4.09,4.06-6.42,6.36.15.18.92,1.07,2.18,2.54ZM292.6,299.4c-13.36-15.39-26.81-30.72-43.32-42.93,12.46,16.3,28.08,29.4,43.32,42.93ZM416.39,294.32c-.7-.91-1.27-1.81-2-2.57-4.48-4.67-8.96-9.35-13.54-13.91-.72-.71-2.42-1.52-2.92-1.18-1.79,1.21-3.25,2.9-4.84,4.4.25.27.49.53.74.8.86-.64,1.73-1.28,2.91-2.15,0,1.23,0,2.07,0,1.87,1.85,1.34,3.05,2.22,4.45,3.23-1.77,2.9-2.82,6.28-8.12,5.09,2.33,2.21,3.93,3.73,5.91,5.62-.46-5.04-.24-5.5,3.44-7.54.07,1.06.13,2,.21,3.14,1.82-1.02,3.32-1.87,4.35-2.44,1.7,1.26,2.95,2.19,4.16,3.1-.58,1.11-1.14,2.18-2.05,3.92,1.88-.9,2.91-1.4,4.76-2.29-1.1,1.84-1.7,2.85-2.86,4.8,2.38-1.71,3.79-2.72,5.39-3.88ZM366.65,298.86c15.06-13.39,29.91-26.98,42.62-42.67-16.15,12.29-29.2,27.68-42.62,42.67ZM260.68,276.76c-6.04,5.37-11.74,10.44-18.3,16.27,3.47.97,5.87,1.65,8.27,2.32.16-.32.31-.65.47-.97-.94-1.43-1.88-2.86-3.14-4.78.64-.46,1.52-1.48,1.93-1.31,1.85.74,3.56,1.81,6.09,3.18-.97-2.18-1.62-3.63-2.13-4.77,2.33-.42,4.4-.79,6.25-1.13-.5-2.09-.99-4.1-1.47-6.11.35-.13.69-.25,1.04-.38,1.08.66,2.17,1.32,3.25,1.98.21-.2.42-.39.62-.59-1.16-1.5-2.32-3-2.88-3.71ZM336.86,232.03c-.36.37-.73.74-1.09,1.11,11.12,10.89,22.23,21.78,33.35,32.67.37-.38.75-.76,1.12-1.14-11.13-10.88-22.25-21.76-33.38-32.64ZM427.22,306.85c-1.05-2.45-1.82-4.4-2.72-6.28-1.51-3.16-5.95-3.66-8.16-1-1.86,2.24-3.78,4.43-5.81,6.8.42.29,1.11.77.94.66,2.39-2.06,4.21-3.92,6.33-5.32,1.09-.72,2.72-.6,4.11-.86-.11,1.38-.08,2.79-.37,4.13-.21.97-.85,1.84-1.41,3,2.61-.41,4.78-.75,7.09-1.11ZM443.24,320.32c-2.67-5.15-7.33-6.03-10.29-1.24-.59.96-.51,3.33.16,3.83.91.67,2.79.48,4.08.09,2-.6,3.86-1.68,6.05-2.68ZM237.27,302.01c3.11-.5,5.41-.88,7.71-1.25.03-.61.07-1.21.1-1.82-1.77-.52-3.56-1.56-5.29-1.46-4.82.28-5.04,4.37-5.89,8.11,1.45.89,2.95,1.82,5.03,3.09-.74-2.98-1.27-5.14-1.65-6.67ZM215.24,320.35c3.74,1.24,6.74,2.27,9.77,3.18.29.09,1.21-.68,1.16-.92-.28-1.45-.41-3.14-1.26-4.21-.8-.99-2.68-2.07-3.67-1.76-1.94.61-3.6,2.15-6,3.71ZM295.51,190.56l-.9.99c4.77,4.43,9.54,8.85,14.31,13.28.27-.29.54-.59.82-.88-4.74-4.46-9.48-8.93-14.23-13.39ZM426.99,314.48c4.49-2.21,4.92-3.6,1.91-6.34-.64,2.13-1.24,4.12-1.91,6.34Z"/>
  </g>
  <g>
    <g>
      <path d="M939.16,182.43c-2.55,13.71-11.48,47.5-14.35,56.11h-158.13v-11.79c28.05-1.91,30.61-4.14,30.61-30.92v-121.46c0-26.78-3.19-29.33-27.1-31.24v-11.8h99.47v11.8c-24.87,2.23-28.06,4.46-28.06,31.24v123.69c0,17.53.64,25.5,18.17,25.82.64.32,15.3.32,16.58.32,18.17,0,22.95-3.83,30.61-12.43,6.06-6.38,14.35-20.08,20.08-33.15l12.11,3.83Z"/>
      <path d="M1129.16,184.34c-1.59,8.61-10.52,45.27-13.39,54.2h-165.46v-11.48c29.01-2.87,30.92-4.46,30.92-31.24v-121.78c0-27.1-3.83-29.01-25.5-30.92v-11.8h103.61c33.47,0,44.63-.32,49.1-.64.32,5.74,1.91,31.88,3.19,51.65l-12.43,1.59c-2.87-10.84-8.29-23.91-13.71-29.65-5.74-6.38-9.88-8.29-26.14-8.29h-20.72c-12.11,0-13.39.64-13.39,11.48v66.63h31.24c17.85,0,21.04-4.78,25.82-27.42h12.43v71.09h-12.43c-5.1-23.59-7.65-27.42-26.14-27.42h-30.92v54.83c0,22,.64,28.69,20.4,29.01h22.64c17.85,0,22.63-2.23,29.65-10.84,7.97-9.24,14.35-21.04,19.45-31.88l11.8,2.87Z"/>
      <path d="M1268.15,238.54v-11.79c20.08-2.87,20.08-6.38,15.62-20.08-3.19-9.56-8.29-23.91-13.07-36.66h-62.17c-3.51,9.88-7.97,22-11.16,31.88-6.69,20.08.96,22.63,26.14,24.87v11.79h-78.74v-11.79c20.08-2.55,25.18-5.42,36.02-32.2l66.31-164.82,15.3-2.87c20.4,55.47,42.08,112.22,62.8,165.46,11.8,29.65,14.66,31.88,35.39,34.43v11.79h-92.45ZM1240.09,86.15c-9.25,22.95-18.17,44.31-26.14,67.59h50.69l-24.55-67.59Z"/>
      <path d="M1469.94,31.32c40.81,0,70.77,8.61,91.18,27.74,16.26,14.98,28.69,37.3,28.69,69.5,0,36.66-15.3,64.72-39.85,83.21-23.59,17.85-53.88,26.78-90.22,26.78h-87.67v-11.79c24.23-1.91,27.1-4.78,27.1-31.24v-121.14c0-26.78-3.51-29.33-27.1-31.24v-11.8h97.87ZM1443.48,193.27c0,22.63,5.74,30.29,29.01,30.29,43.04,0,67.9-29.97,67.9-90.22,0-30.29-8.29-56.75-22.95-70.45-13.39-13.39-29.97-17.85-51.33-17.85-11.8,0-17.22,2.55-19.13,4.46-2.87,2.87-3.51,8.29-3.51,17.53v126.24Z"/>
    </g>
    <g>
      <path d="M883.22,439.72v-7.43c15.26-1.61,16.26-3.01,16.26-21.08l-.2-78.29c-14.45,34.53-30.31,72.67-44.76,106.79h-6.63c-13.05-32.72-27.3-70.06-41.75-105.19-2.61,63.03-2.61,75.48-2.61,82.7.2,10.84,4.22,13.65,19.27,15.06v7.43h-49.78v-7.43c11.44-1,16.66-3.21,18.27-15.26.8-6.02,1.61-17.46,6.22-83.71.6-9.64-.8-15.06-18.07-16.66v-7.43h43.36l38.74,88.53,38.94-88.53h42.36v7.43c-16.06,1.61-17.87,3.21-17.46,19.27l1.61,75.28c.2,18.07,1,18.87,17.26,21.08v7.43h-61.02Z"/>
      <path d="M1069.31,405.59c-1,5.42-6.62,28.5-8.43,34.13h-104.18v-7.23c18.27-1.81,19.47-2.81,19.47-19.67v-76.68c0-17.06-2.41-18.27-16.06-19.47v-7.43h65.24c21.08,0,28.1-.2,30.91-.4.2,3.61,1.2,20.07,2.01,32.52l-7.83,1c-1.81-6.82-5.22-15.06-8.63-18.67-3.61-4.01-6.22-5.22-16.46-5.22h-13.05c-7.63,0-8.43.4-8.43,7.23v41.96h19.67c11.24,0,13.25-3.01,16.26-17.26h7.83v44.77h-7.83c-3.21-14.86-4.82-17.26-16.46-17.26h-19.47v34.53c0,13.85.4,18.07,12.85,18.27h14.25c11.24,0,14.25-1.41,18.67-6.83,5.02-5.82,9.03-13.25,12.25-20.07l7.43,1.81ZM1000.66,293.18l34.53-33.52c4.42,2.21,14.85,10.24,18.07,14.85l-.2,1.81-47.98,22.88-4.42-6.02Z"/>
      <path d="M1150.21,439.72v-7.43c13.65-1.81,13.05-5.02,9.64-11.44-2.01-3.41-6.22-10.44-20.68-35.33-9.23,14.25-18.07,27.3-21.68,34.33-4.62,8.23-3.61,10.44,10.44,12.45v7.43h-49.98v-7.43c11.24-1,18.47-4.22,24.29-11.24,7.23-8.83,20.07-26.5,31.52-43.76-9.43-15.86-17.87-29.91-28.1-46.37-5.42-9.03-9.84-12.65-24.89-14.25v-7.43h62.63v7.43c-12.04,1.41-12.65,3.61-9.84,9.43,3.21,6.22,9.64,17.06,17.87,30.31,6.02-8.23,13.45-20.07,18.27-28.5,3.81-7.03,2.21-9.03-10.24-11.24v-7.43h48.58v7.43c-13.05,1.61-19.07,3.61-26.7,13.25-6.83,9.03-14.65,20.28-24.49,34.13,11.64,18.47,20.88,33.93,32.72,51.79,8.03,13.05,12.25,15.06,26.1,16.46v7.43h-65.44Z"/>
      <path d="M1223.48,439.72v-7.43c15.26-1.4,17.06-2.61,17.06-19.47v-76.48c0-16.86-2.01-18.47-17.06-19.67v-7.43h62.03v7.43c-15.06,1.41-17.06,2.81-17.06,19.67v76.48c0,16.66,1.81,17.87,17.06,19.47v7.43h-62.03Z"/>
      <path d="M1427.43,405.19c-2.81,10.04-8.03,25.29-11.24,32.32-5.22,1.2-21.68,5.22-36.94,5.22-54,0-76.28-34.73-76.28-66.65,0-41.55,31.72-69.66,79.9-69.66,17.46,0,32.92,4.22,37.94,4.82,1,9.43,2.41,24.29,3.81,33.12l-8.03,1.4c-4.22-15.66-10.24-23.08-20.88-27.3-4.82-2.01-12.04-2.81-17.46-2.81-29.11,0-43.76,24.29-43.76,55.81,0,36.74,18.87,61.63,46.37,61.63,16.86,0,28.1-8.83,38.94-30.91l7.63,3.01Z"/>
      <path d="M1514.76,306.43c37.14,0,67.45,27.1,67.45,66.65,0,42.76-30.51,69.66-68.45,69.66-40.15,0-69.26-29.31-69.26-68.05,0-34.33,24.49-68.25,70.26-68.25ZM1511.74,315.26c-20.48,0-35.53,20.07-35.53,55.61s13.45,63.03,40.55,63.03c19.07,0,33.93-18.47,33.93-55.2,0-39.75-15.66-63.43-38.94-63.43Z"/>
    </g>
  </g>
</svg>